<svg width="175" height="132" viewBox="0 0 175 132" fill="none" xmlns="http://www.w3.org/2000/svg">
<path d="M117.467 6.3664C128.027 6.3664 137.022 8.28128 144.449 12.111C151.992 15.9408 158.317 21.8015 163.424 29.6931L149.323 42.401C146.074 35.4378 142.012 30.3894 137.138 27.256C132.263 24.1226 125.764 22.5558 117.641 22.5558C109.633 22.5558 103.424 24.1806 99.0141 27.4301C94.604 30.5635 92.399 34.6254 92.399 39.6157C92.399 44.2578 94.546 47.9715 98.84 50.7568C103.134 53.426 110.793 55.7471 121.819 57.72C132.147 59.5768 140.329 61.9559 146.364 64.8573C152.515 67.6426 156.983 71.1822 159.768 75.4762C162.553 79.6541 163.946 84.8765 163.946 91.1434C163.946 97.8745 162.031 103.793 158.201 108.9C154.372 114.006 148.975 117.952 142.012 120.737C135.165 123.406 127.215 124.741 118.163 124.741C94.8362 124.741 78.3566 116.965 68.7241 101.414L81.7802 88.3581C85.4939 95.3213 90.252 100.428 96.0547 103.677C101.973 106.927 109.285 108.551 117.989 108.551C126.229 108.551 132.67 107.159 137.312 104.373C142.07 101.472 144.449 97.4102 144.449 92.1878C144.449 88.0099 142.302 84.6444 138.008 82.0912C133.83 79.538 126.461 77.275 115.9 75.3021C105.339 73.3292 96.9251 70.8921 90.6582 67.9907C84.3913 65.0894 79.8072 61.4917 76.9059 57.1978C74.1206 52.9038 72.728 47.6814 72.728 41.5306C72.728 35.0316 74.5268 29.1128 78.1245 23.7744C81.7221 18.4359 86.8865 14.2 93.6176 11.0666C100.465 7.93312 108.414 6.3664 117.467 6.3664Z" fill="black"/>
<path d="M144.449 12.111L141.699 17.4439L141.716 17.4525L141.733 17.461L144.449 12.111ZM163.424 29.6931L167.44 34.1501L171.239 30.7268L168.461 26.4336L163.424 29.6931ZM149.323 42.401L143.886 44.9383L147.316 52.2873L153.34 46.858L149.323 42.401ZM99.0141 27.4301L102.489 32.3212L102.532 32.2911L102.573 32.2604L99.0141 27.4301ZM98.84 50.7568L95.5748 55.7906L95.6233 55.822L95.6724 55.8525L98.84 50.7568ZM121.819 57.72L122.88 51.8147L122.875 51.8138L121.819 57.72ZM146.364 64.8573L143.764 70.2648L143.826 70.2946L143.889 70.323L146.364 64.8573ZM159.768 75.4762L154.734 78.7413L154.755 78.773L154.776 78.8044L159.768 75.4762ZM142.012 120.737L144.191 126.327L144.216 126.318L144.24 126.308L142.012 120.737ZM68.7241 101.414L64.4815 97.1714L61.1204 100.533L63.6234 104.574L68.7241 101.414ZM81.7802 88.3581L87.0743 85.5345L83.2635 78.3894L77.5375 84.1154L81.7802 88.3581ZM96.0547 103.677L93.1231 108.912L93.1451 108.924L93.1672 108.937L96.0547 103.677ZM137.312 104.373L140.399 109.518L140.417 109.507L140.435 109.496L137.312 104.373ZM138.008 82.0912L134.879 87.2109L134.91 87.2298L134.942 87.2484L138.008 82.0912ZM115.9 75.3021L117.002 69.4041L117.002 69.4041L115.9 75.3021ZM90.6582 67.9907L93.179 62.5459L93.179 62.5459L90.6582 67.9907ZM76.9059 57.1978L71.8721 60.4629L71.9028 60.5102L71.9344 60.5569L76.9059 57.1978ZM93.6176 11.0666L91.1208 5.61071L91.1031 5.61883L91.0854 5.62706L93.6176 11.0666ZM117.467 12.3664C127.317 12.3664 135.317 14.1529 141.699 17.4439L147.199 6.77822C138.726 2.40962 128.738 0.366396 117.467 0.366396V12.3664ZM141.733 17.461C148.229 20.7593 153.79 25.8493 158.386 32.9526L168.461 26.4336C162.845 17.7537 155.755 11.1222 147.165 6.76103L141.733 17.461ZM159.407 25.2361L145.306 37.9439L153.34 46.858L167.44 34.1501L159.407 25.2361ZM154.76 39.8636C151.184 32.2006 146.473 26.1247 140.382 22.2089L133.893 32.3031C137.55 34.6542 140.963 38.6749 143.886 44.9383L154.76 39.8636ZM140.382 22.2089C134.225 18.2505 126.471 16.5558 117.641 16.5558V28.5558C125.057 28.5558 130.302 29.9946 133.893 32.3031L140.382 22.2089ZM117.641 16.5558C108.919 16.5558 101.274 18.3119 95.4549 22.5997L102.573 32.2604C105.574 30.0493 110.347 28.5558 117.641 28.5558V16.5558ZM95.5388 22.539C89.7008 26.6871 86.399 32.4987 86.399 39.6157H98.399C98.399 36.752 99.5073 34.44 102.489 32.3212L95.5388 22.539ZM86.399 39.6157C86.399 46.526 89.7826 52.0335 95.5748 55.7906L102.105 45.723C99.3094 43.9096 98.399 41.9896 98.399 39.6157H86.399ZM95.6724 55.8525C101.018 59.1755 109.677 61.6427 120.762 63.6262L122.875 51.8138C111.91 49.8515 105.25 47.6765 102.008 45.6611L95.6724 55.8525ZM120.757 63.6253C130.818 65.434 138.412 67.6915 143.764 70.2648L148.964 59.4498C142.247 56.2204 133.477 53.7197 122.88 51.8147L120.757 63.6253ZM143.889 70.323C149.321 72.7828 152.744 75.6731 154.734 78.7413L164.802 72.211C161.221 66.6913 155.708 62.5023 148.839 59.3916L143.889 70.323ZM154.776 78.8044C156.758 81.7772 157.946 85.7665 157.946 91.1434H169.946C169.946 83.9864 168.349 77.5309 164.76 72.148L154.776 78.8044ZM157.946 91.1434C157.946 96.6518 156.408 101.291 153.401 105.3L163.001 112.5C167.654 106.296 169.946 99.0971 169.946 91.1434H157.946ZM153.401 105.3C150.34 109.382 145.906 112.717 139.783 115.166L144.24 126.308C152.044 123.186 158.403 118.63 163.001 112.5L153.401 105.3ZM139.833 115.147C133.82 117.49 126.637 118.741 118.163 118.741V130.741C127.793 130.741 136.509 129.322 144.191 126.327L139.833 115.147ZM118.163 118.741C96.2609 118.741 82.059 111.548 73.8249 98.2546L63.6234 104.574C74.6541 122.382 93.4114 130.741 118.163 130.741V118.741ZM72.9668 105.657L86.0228 92.6007L77.5375 84.1154L64.4815 97.1714L72.9668 105.657ZM76.486 91.1816C80.6379 98.9664 86.1442 105.004 93.1231 108.912L98.9863 98.4421C94.3599 95.8513 90.3498 91.6762 87.0743 85.5345L76.486 91.1816ZM93.1672 108.937C100.19 112.792 108.56 114.551 117.989 114.551V102.551C110.01 102.551 103.757 101.061 98.9423 98.4176L93.1672 108.937ZM117.989 114.551C126.792 114.551 134.459 113.082 140.399 109.518L134.225 99.2285C130.88 101.235 125.665 102.551 117.989 102.551V114.551ZM140.435 109.496C146.835 105.594 150.449 99.6671 150.449 92.1878H138.449C138.449 95.1534 137.305 97.3501 134.188 99.2507L140.435 109.496ZM150.449 92.1878C150.449 85.4485 146.769 80.3198 141.074 76.934L134.942 87.2484C137.835 88.9689 138.449 90.5713 138.449 92.1878H150.449ZM141.137 76.9715C135.949 73.8011 127.629 71.3894 117.002 69.4041L114.798 81.2C125.293 83.1606 131.711 85.2749 134.879 87.2109L141.137 76.9715ZM117.002 69.4041C106.692 67.4781 98.8162 65.1558 93.179 62.5459L88.1375 73.4355C95.034 76.6283 103.986 79.1802 114.798 81.2L117.002 69.4041ZM93.179 62.5459C87.5835 59.9554 83.9958 56.9737 81.8774 53.8386L71.9344 60.5569C75.6187 66.0097 81.1992 70.2233 88.1375 73.4355L93.179 62.5459ZM81.9397 53.9326C79.9025 50.7919 78.728 46.759 78.728 41.5306H66.728C66.728 48.6037 68.3388 55.0157 71.8721 60.4629L81.9397 53.9326ZM78.728 41.5306C78.728 36.2142 80.1769 31.4651 83.1001 27.1275L73.1489 20.4213C68.8767 26.7605 66.728 33.849 66.728 41.5306H78.728ZM83.1001 27.1275C85.9995 22.8251 90.2534 19.2509 96.1498 16.5061L91.0854 5.62706C83.5196 9.1491 77.4447 14.0468 73.1489 20.4213L83.1001 27.1275ZM96.1143 16.5224C102.036 13.8125 109.105 12.3664 117.467 12.3664V0.366396C107.724 0.366396 98.8936 2.05369 91.1208 5.61071L96.1143 16.5224Z" fill="white"/>
<path d="M117.467 6.3664C128.027 6.3664 137.022 8.28128 144.449 12.111C151.992 15.9408 158.317 21.8015 163.424 29.6931L149.323 42.401C146.074 35.4378 142.012 30.3894 137.138 27.256C132.263 24.1226 125.764 22.5558 117.641 22.5558C109.633 22.5558 103.424 24.1806 99.0141 27.4301C94.604 30.5635 92.399 34.6254 92.399 39.6157C92.399 44.2578 94.546 47.9715 98.84 50.7568C103.134 53.426 110.793 55.7471 121.819 57.72C132.147 59.5768 140.329 61.9559 146.364 64.8573C152.515 67.6426 156.983 71.1822 159.768 75.4762C162.553 79.6541 163.946 84.8765 163.946 91.1434C163.946 97.8745 162.031 103.793 158.201 108.9C154.372 114.006 148.975 117.952 142.012 120.737C135.165 123.406 127.215 124.741 118.163 124.741C94.8362 124.741 78.3566 116.965 68.7241 101.414L81.7802 88.3581C85.4939 95.3213 90.252 100.428 96.0547 103.677C101.973 106.927 109.285 108.551 117.989 108.551C126.229 108.551 132.67 107.159 137.312 104.373C142.07 101.472 144.449 97.4102 144.449 92.1878C144.449 88.0099 142.302 84.6444 138.008 82.0912C133.83 79.538 126.461 77.275 115.9 75.3021C105.339 73.3292 96.9251 70.8921 90.6582 67.9907C84.3913 65.0894 79.8072 61.4917 76.9059 57.1978C74.1206 52.9038 72.728 47.6814 72.728 41.5306C72.728 35.0316 74.5268 29.1128 78.1245 23.7744C81.7221 18.4359 86.8865 14.2 93.6176 11.0666C100.465 7.93312 108.414 6.3664 117.467 6.3664Z" fill="black"/>
<path d="M100.242 107.159V123H7.4569V107.855L76.9148 23.9485H9.02362V8.10719H98.1526V23.2522L28.6947 107.159H100.242Z" fill="black"/>
<path d="M100.242 107.159H106.242V101.159H100.242V107.159ZM100.242 123V129H106.242V123H100.242ZM7.4569 123H1.4569V129H7.4569V123ZM7.4569 107.855L2.83502 104.029L1.4569 105.694V107.855H7.4569ZM76.9148 23.9485L81.5367 27.7745L89.6707 17.9485H76.9148V23.9485ZM9.02362 23.9485H3.02362V29.9485H9.02362V23.9485ZM9.02362 8.10719V2.10719H3.02362V8.10719H9.02362ZM98.1526 8.10719H104.153V2.10719H98.1526V8.10719ZM98.1526 23.2522L102.774 27.0782L104.153 25.4134V23.2522H98.1526ZM28.6947 107.159L24.0728 103.333L15.9388 113.159H28.6947V107.159ZM94.2415 107.159V123H106.242V107.159H94.2415ZM100.242 117H7.4569V129H100.242V117ZM13.4569 123V107.855H1.4569V123H13.4569ZM12.0788 111.681L81.5367 27.7745L72.2929 20.1225L2.83502 104.029L12.0788 111.681ZM76.9148 17.9485H9.02362V29.9485H76.9148V17.9485ZM15.0236 23.9485V8.10719H3.02362V23.9485H15.0236ZM9.02362 14.1072H98.1526V2.10719H9.02362V14.1072ZM92.1526 8.10719V23.2522H104.153V8.10719H92.1526ZM93.5307 19.4262L24.0728 103.333L33.3165 110.985L102.774 27.0782L93.5307 19.4262ZM28.6947 113.159H100.242V101.159H28.6947V113.159Z" fill="white"/>
<path d="M100.242 107.159V123H7.4569V107.855L76.9148 23.9485H9.02362V8.10719H98.1526V23.2522L28.6947 107.159H100.242Z" fill="black"/>
<mask id="mask0" mask-type="alpha" maskUnits="userSpaceOnUse" x="39" y="95" width="79" height="29">
<rect x="39.2941" y="95" width="78.2851" height="29" fill="black"/>
</mask>
<g mask="url(#mask0)">
<path d="M117.467 6.3664C128.027 6.3664 137.022 8.28128 144.449 12.111C151.992 15.9408 158.317 21.8015 163.424 29.6931L149.323 42.401C146.074 35.4378 142.012 30.3894 137.138 27.256C132.263 24.1226 125.764 22.5558 117.641 22.5558C109.633 22.5558 103.424 24.1806 99.0141 27.4301C94.604 30.5635 92.399 34.6254 92.399 39.6157C92.399 44.2578 94.546 47.9715 98.84 50.7568C103.134 53.426 110.793 55.7471 121.819 57.72C132.147 59.5768 140.329 61.9559 146.364 64.8573C152.515 67.6426 156.983 71.1822 159.768 75.4762C162.553 79.6541 163.946 84.8765 163.946 91.1434C163.946 97.8745 162.031 103.793 158.201 108.9C154.372 114.006 148.975 117.952 142.012 120.737C135.165 123.406 127.215 124.741 118.163 124.741C94.8362 124.741 78.3566 116.965 68.7241 101.414L81.7802 88.3581C85.4939 95.3213 90.252 100.428 96.0547 103.677C101.973 106.927 109.285 108.551 117.989 108.551C126.229 108.551 132.67 107.159 137.312 104.373C142.07 101.472 144.449 97.4102 144.449 92.1878C144.449 88.0099 142.302 84.6444 138.008 82.0912C133.83 79.538 126.461 77.275 115.9 75.3021C105.339 73.3292 96.9251 70.8921 90.6582 67.9907C84.3913 65.0894 79.8072 61.4917 76.9059 57.1978C74.1206 52.9038 72.728 47.6814 72.728 41.5306C72.728 35.0316 74.5268 29.1128 78.1245 23.7744C81.7221 18.4359 86.8865 14.2 93.6176 11.0666C100.465 7.93312 108.414 6.3664 117.467 6.3664Z" fill="black"/>
<path d="M144.449 12.111L141.699 17.4439L141.716 17.4525L141.733 17.461L144.449 12.111ZM163.424 29.6931L167.44 34.1501L171.239 30.7268L168.461 26.4336L163.424 29.6931ZM149.323 42.401L143.886 44.9383L147.316 52.2873L153.34 46.858L149.323 42.401ZM99.0141 27.4301L102.489 32.3212L102.532 32.2911L102.573 32.2604L99.0141 27.4301ZM98.84 50.7568L95.5748 55.7906L95.6233 55.822L95.6724 55.8525L98.84 50.7568ZM121.819 57.72L122.88 51.8147L122.875 51.8138L121.819 57.72ZM146.364 64.8573L143.764 70.2648L143.826 70.2946L143.889 70.323L146.364 64.8573ZM159.768 75.4762L154.734 78.7413L154.755 78.773L154.776 78.8044L159.768 75.4762ZM142.012 120.737L144.191 126.327L144.216 126.318L144.24 126.308L142.012 120.737ZM68.7241 101.414L64.4815 97.1714L61.1204 100.533L63.6234 104.574L68.7241 101.414ZM81.7802 88.3581L87.0743 85.5345L83.2635 78.3894L77.5375 84.1154L81.7802 88.3581ZM96.0547 103.677L93.1231 108.912L93.1451 108.924L93.1672 108.937L96.0547 103.677ZM137.312 104.373L140.399 109.518L140.417 109.507L140.435 109.496L137.312 104.373ZM138.008 82.0912L134.879 87.2109L134.91 87.2298L134.942 87.2484L138.008 82.0912ZM115.9 75.3021L117.002 69.4041L117.002 69.4041L115.9 75.3021ZM90.6582 67.9907L93.179 62.5459L93.179 62.5459L90.6582 67.9907ZM76.9059 57.1978L71.8721 60.4629L71.9028 60.5102L71.9344 60.5569L76.9059 57.1978ZM93.6176 11.0666L91.1208 5.61071L91.1031 5.61883L91.0854 5.62706L93.6176 11.0666ZM117.467 12.3664C127.317 12.3664 135.317 14.1529 141.699 17.4439L147.199 6.77822C138.726 2.40962 128.738 0.366396 117.467 0.366396V12.3664ZM141.733 17.461C148.229 20.7593 153.79 25.8493 158.386 32.9526L168.461 26.4336C162.845 17.7537 155.755 11.1222 147.165 6.76103L141.733 17.461ZM159.407 25.2361L145.306 37.9439L153.34 46.858L167.44 34.1501L159.407 25.2361ZM154.76 39.8636C151.184 32.2006 146.473 26.1247 140.382 22.2089L133.893 32.3031C137.55 34.6542 140.963 38.6749 143.886 44.9383L154.76 39.8636ZM140.382 22.2089C134.225 18.2505 126.471 16.5558 117.641 16.5558V28.5558C125.057 28.5558 130.302 29.9946 133.893 32.3031L140.382 22.2089ZM117.641 16.5558C108.919 16.5558 101.274 18.3119 95.4549 22.5997L102.573 32.2604C105.574 30.0493 110.347 28.5558 117.641 28.5558V16.5558ZM95.5388 22.539C89.7008 26.6871 86.399 32.4987 86.399 39.6157H98.399C98.399 36.752 99.5073 34.44 102.489 32.3212L95.5388 22.539ZM86.399 39.6157C86.399 46.526 89.7826 52.0335 95.5748 55.7906L102.105 45.723C99.3094 43.9096 98.399 41.9896 98.399 39.6157H86.399ZM95.6724 55.8525C101.018 59.1755 109.677 61.6427 120.762 63.6262L122.875 51.8138C111.91 49.8515 105.25 47.6765 102.008 45.6611L95.6724 55.8525ZM120.757 63.6253C130.818 65.434 138.412 67.6915 143.764 70.2648L148.964 59.4498C142.247 56.2204 133.477 53.7197 122.88 51.8147L120.757 63.6253ZM143.889 70.323C149.321 72.7828 152.744 75.6731 154.734 78.7413L164.802 72.211C161.221 66.6913 155.708 62.5023 148.839 59.3916L143.889 70.323ZM154.776 78.8044C156.758 81.7772 157.946 85.7665 157.946 91.1434H169.946C169.946 83.9864 168.349 77.5309 164.76 72.148L154.776 78.8044ZM157.946 91.1434C157.946 96.6518 156.408 101.291 153.401 105.3L163.001 112.5C167.654 106.296 169.946 99.0971 169.946 91.1434H157.946ZM153.401 105.3C150.34 109.382 145.906 112.717 139.783 115.166L144.24 126.308C152.044 123.186 158.403 118.63 163.001 112.5L153.401 105.3ZM139.833 115.147C133.82 117.49 126.637 118.741 118.163 118.741V130.741C127.793 130.741 136.509 129.322 144.191 126.327L139.833 115.147ZM118.163 118.741C96.2609 118.741 82.059 111.548 73.8249 98.2546L63.6234 104.574C74.6541 122.382 93.4114 130.741 118.163 130.741V118.741ZM72.9668 105.657L86.0228 92.6007L77.5375 84.1154L64.4815 97.1714L72.9668 105.657ZM76.486 91.1816C80.6379 98.9664 86.1442 105.004 93.1231 108.912L98.9863 98.4421C94.3599 95.8513 90.3498 91.6762 87.0743 85.5345L76.486 91.1816ZM93.1672 108.937C100.19 112.792 108.56 114.551 117.989 114.551V102.551C110.01 102.551 103.757 101.061 98.9423 98.4176L93.1672 108.937ZM117.989 114.551C126.792 114.551 134.459 113.082 140.399 109.518L134.225 99.2285C130.88 101.235 125.665 102.551 117.989 102.551V114.551ZM140.435 109.496C146.835 105.594 150.449 99.6671 150.449 92.1878H138.449C138.449 95.1534 137.305 97.3501 134.188 99.2507L140.435 109.496ZM150.449 92.1878C150.449 85.4485 146.769 80.3198 141.074 76.934L134.942 87.2484C137.835 88.9689 138.449 90.5713 138.449 92.1878H150.449ZM141.137 76.9715C135.949 73.8011 127.629 71.3894 117.002 69.4041L114.798 81.2C125.293 83.1606 131.711 85.2749 134.879 87.2109L141.137 76.9715ZM117.002 69.4041C106.692 67.4781 98.8162 65.1558 93.179 62.5459L88.1375 73.4355C95.034 76.6283 103.986 79.1802 114.798 81.2L117.002 69.4041ZM93.179 62.5459C87.5835 59.9554 83.9958 56.9737 81.8774 53.8386L71.9344 60.5569C75.6187 66.0097 81.1992 70.2233 88.1375 73.4355L93.179 62.5459ZM81.9397 53.9326C79.9025 50.7919 78.728 46.759 78.728 41.5306H66.728C66.728 48.6037 68.3388 55.0157 71.8721 60.4629L81.9397 53.9326ZM78.728 41.5306C78.728 36.2142 80.1769 31.4651 83.1001 27.1275L73.1489 20.4213C68.8767 26.7605 66.728 33.849 66.728 41.5306H78.728ZM83.1001 27.1275C85.9995 22.8251 90.2534 19.2509 96.1498 16.5061L91.0854 5.62706C83.5196 9.1491 77.4447 14.0468 73.1489 20.4213L83.1001 27.1275ZM96.1143 16.5224C102.036 13.8125 109.105 12.3664 117.467 12.3664V0.366396C107.724 0.366396 98.8936 2.05369 91.1208 5.61071L96.1143 16.5224Z" fill="white"/>
<path d="M117.467 6.3664C128.027 6.3664 137.022 8.28128 144.449 12.111C151.992 15.9408 158.317 21.8015 163.424 29.6931L149.323 42.401C146.074 35.4378 142.012 30.3894 137.138 27.256C132.263 24.1226 125.764 22.5558 117.641 22.5558C109.633 22.5558 103.424 24.1806 99.0141 27.4301C94.604 30.5635 92.399 34.6254 92.399 39.6157C92.399 44.2578 94.546 47.9715 98.84 50.7568C103.134 53.426 110.793 55.7471 121.819 57.72C132.147 59.5768 140.329 61.9559 146.364 64.8573C152.515 67.6426 156.983 71.1822 159.768 75.4762C162.553 79.6541 163.946 84.8765 163.946 91.1434C163.946 97.8745 162.031 103.793 158.201 108.9C154.372 114.006 148.975 117.952 142.012 120.737C135.165 123.406 127.215 124.741 118.163 124.741C94.8362 124.741 78.3566 116.965 68.7241 101.414L81.7802 88.3581C85.4939 95.3213 90.252 100.428 96.0547 103.677C101.973 106.927 109.285 108.551 117.989 108.551C126.229 108.551 132.67 107.159 137.312 104.373C142.07 101.472 144.449 97.4102 144.449 92.1878C144.449 88.0099 142.302 84.6444 138.008 82.0912C133.83 79.538 126.461 77.275 115.9 75.3021C105.339 73.3292 96.9251 70.8921 90.6582 67.9907C84.3913 65.0894 79.8072 61.4917 76.9059 57.1978C74.1206 52.9038 72.728 47.6814 72.728 41.5306C72.728 35.0316 74.5268 29.1128 78.1245 23.7744C81.7221 18.4359 86.8865 14.2 93.6176 11.0666C100.465 7.93312 108.414 6.3664 117.467 6.3664Z" fill="black"/>
</g>
</svg>
