<svg width="195" height="147" viewBox="0 0 195 147" fill="none" xmlns="http://www.w3.org/2000/svg">
<path d="M129.444 133.437C119.579 133.437 110.005 132.219 100.721 129.781C91.4365 127.344 83.8931 124.095 78.0904 120.033L89.4056 94.6173C94.8601 98.2149 101.185 101.116 108.38 103.321C115.576 105.526 122.655 106.629 129.618 106.629C142.848 106.629 149.463 103.321 149.463 96.7062C149.463 93.2246 147.548 90.6715 143.719 89.0467C140.005 87.3059 133.97 85.5071 125.614 83.6502C116.446 81.6773 108.786 79.5884 102.636 77.3834C96.4848 75.0623 91.2044 71.4066 86.7944 66.4163C82.3844 61.426 80.1793 54.6949 80.1793 46.223C80.1793 38.7956 82.2103 32.1226 86.2721 26.2038C90.334 20.1691 96.3688 15.4109 104.376 11.9293C112.5 8.44767 122.423 6.70687 134.144 6.70687C142.152 6.70687 150.043 7.6353 157.819 9.49216C165.595 11.233 172.442 13.8442 178.36 17.3257L167.742 42.9155C156.136 36.6486 144.879 33.5152 133.97 33.5152C127.123 33.5152 122.133 34.5597 118.999 36.6486C115.866 38.6215 114.299 41.2327 114.299 44.4822C114.299 47.7317 116.156 50.1689 119.87 51.7936C123.583 53.4183 129.56 55.1011 137.8 56.8419C147.084 58.8148 154.744 60.9618 160.778 63.2829C166.929 65.4879 172.21 69.0855 176.62 74.0758C181.146 78.9501 183.409 85.6231 183.409 94.095C183.409 101.406 181.378 108.021 177.316 113.94C173.254 119.859 167.161 124.617 159.038 128.215C150.914 131.696 141.049 133.437 129.444 133.437Z" fill="#333333"/>
<path d="M100.721 129.781L102.244 123.978L100.721 129.781ZM78.0904 120.033L72.6091 117.593L70.5972 122.112L74.6496 124.948L78.0904 120.033ZM89.4056 94.6173L92.7092 89.6086L86.8022 85.7126L83.9243 92.177L89.4056 94.6173ZM108.38 103.321L110.138 97.5846L110.138 97.5846L108.38 103.321ZM143.719 89.0467L141.172 94.4795L141.273 94.5267L141.375 94.5702L143.719 89.0467ZM125.614 83.6502L126.916 77.7931L126.896 77.7887L126.876 77.7845L125.614 83.6502ZM102.636 77.3834L100.517 82.997L100.564 83.0146L100.611 83.0314L102.636 77.3834ZM86.2721 26.2038L91.2192 29.5989L91.2345 29.5766L91.2497 29.5541L86.2721 26.2038ZM104.376 11.9293L102.013 6.41441L101.999 6.42059L101.984 6.42685L104.376 11.9293ZM157.819 9.49216L156.425 15.3281L156.467 15.3379L156.508 15.3472L157.819 9.49216ZM178.36 17.3257L183.902 19.6254L185.904 14.8019L181.403 12.1541L178.36 17.3257ZM167.742 42.9155L164.891 48.1949L170.737 51.3519L173.283 45.2152L167.742 42.9155ZM118.999 36.6486L122.196 41.726L122.262 41.6843L122.327 41.6409L118.999 36.6486ZM119.87 51.7936L117.465 57.2905L117.465 57.2905L119.87 51.7936ZM137.8 56.8419L139.047 50.973L139.04 50.9715L137.8 56.8419ZM160.778 63.2829L158.625 68.8829L158.689 68.9077L158.754 68.9309L160.778 63.2829ZM176.62 74.0758L172.124 78.049L172.173 78.1044L172.223 78.1585L176.62 74.0758ZM177.316 113.94L172.369 110.545L172.369 110.545L177.316 113.94ZM159.038 128.215L161.401 133.73L161.434 133.715L161.467 133.701L159.038 128.215ZM129.444 127.437C120.079 127.437 111.018 126.281 102.244 123.978L99.1974 135.585C108.993 138.156 119.08 139.437 129.444 139.437V127.437ZM102.244 123.978C93.4186 121.661 86.5863 118.656 81.5312 115.118L74.6496 124.948C81.1998 129.534 89.4545 133.027 99.1974 135.585L102.244 123.978ZM83.5717 122.473L94.8869 97.0576L83.9243 92.177L72.6091 117.593L83.5717 122.473ZM86.102 99.6259C92.1004 103.582 98.9609 106.71 106.622 109.058L110.138 97.5846C103.409 95.5224 97.6198 92.8476 92.7092 89.6086L86.102 99.6259ZM106.622 109.058C114.341 111.423 122.013 112.629 129.618 112.629V100.629C123.297 100.629 116.81 99.6291 110.138 97.5846L106.622 109.058ZM129.618 112.629C136.54 112.629 142.624 111.795 147.185 109.515C149.551 108.332 151.685 106.67 153.215 104.376C154.77 102.043 155.463 99.4099 155.463 96.7062H143.463C143.463 97.3101 143.329 97.5708 143.231 97.7192C143.107 97.9051 142.761 98.3106 141.819 98.7816C139.765 99.8085 135.927 100.629 129.618 100.629V112.629ZM155.463 96.7062C155.463 93.7921 154.635 90.991 152.827 88.5802C151.07 86.2374 148.663 84.6266 146.062 83.5232L141.375 94.5702C142.604 95.0916 143.069 95.5697 143.227 95.7802C143.334 95.9225 143.463 96.1388 143.463 96.7062H155.463ZM146.265 83.614C141.92 81.5773 135.342 79.6657 126.916 77.7931L124.313 89.5074C132.598 91.3485 138.089 93.0345 141.172 94.4795L146.265 83.614ZM126.876 77.7845C117.866 75.8455 110.481 73.8219 104.66 71.7353L100.611 83.0314C107.092 85.3549 115.026 87.5091 124.352 89.516L126.876 77.7845ZM104.754 71.7697C99.5298 69.7983 95.062 66.7111 91.2904 62.4431L82.2984 70.3895C87.3468 76.1021 93.4399 80.3262 100.517 82.997L104.754 71.7697ZM91.2904 62.4431C88.0906 58.8224 86.1793 53.642 86.1793 46.223H74.1793C74.1793 55.7478 76.6781 64.0296 82.2984 70.3895L91.2904 62.4431ZM86.1793 46.223C86.1793 39.963 87.868 34.4821 91.2192 29.5989L81.3251 22.8088C76.5525 29.7631 74.1793 37.6282 74.1793 46.223H86.1793ZM91.2497 29.5541C94.5546 24.6439 99.5981 20.5494 106.769 17.4317L101.984 6.42685C93.1395 10.2723 86.1134 15.6942 81.2946 22.8536L91.2497 29.5541ZM106.74 17.4441C113.916 14.3687 122.984 12.7069 134.144 12.7069V0.706871C121.862 0.706871 111.084 2.52665 102.013 6.41441L106.74 17.4441ZM134.144 12.7069C141.683 12.7069 149.107 13.5804 156.425 15.3281L159.213 3.65626C150.98 1.69019 142.62 0.706871 134.144 0.706871V12.7069ZM156.508 15.3472C163.77 16.973 170.016 19.3783 175.318 22.4974L181.403 12.1541C174.868 8.30998 167.419 5.49288 159.13 3.6371L156.508 15.3472ZM172.819 15.0261L162.2 40.6159L173.283 45.2152L183.902 19.6254L172.819 15.0261ZM170.592 37.6361C158.293 30.9944 146.062 27.5152 133.97 27.5152V39.5152C143.696 39.5152 153.979 42.3028 164.891 48.1949L170.592 37.6361ZM133.97 27.5152C126.776 27.5152 120.311 28.5631 115.671 31.6563L122.327 41.6409C123.954 40.5562 127.469 39.5152 133.97 39.5152V27.5152ZM115.802 31.5712C111.211 34.4618 108.299 38.8531 108.299 44.4822H120.299C120.299 43.6124 120.52 42.7813 122.196 41.726L115.802 31.5712ZM108.299 44.4822C108.299 47.3357 109.144 50.0542 110.919 52.3835C112.634 54.6338 114.965 56.1969 117.465 57.2905L122.274 46.2967C121.061 45.7655 120.607 45.2977 120.464 45.1109C120.382 45.0031 120.299 44.8782 120.299 44.4822H108.299ZM117.465 57.2905C121.771 59.1745 128.251 60.9571 136.56 62.7123L139.04 50.9715C130.869 49.2452 125.396 47.6622 122.274 46.2967L117.465 57.2905ZM136.553 62.7109C145.657 64.6455 152.986 66.7143 158.625 68.8829L162.932 57.6828C156.501 55.2093 148.511 52.9841 139.047 50.973L136.553 62.7109ZM158.754 68.9309C163.934 70.788 168.37 73.8011 172.124 78.049L181.116 70.1026C176.05 64.37 169.925 60.1878 162.803 57.6348L158.754 68.9309ZM172.223 78.1585C175.459 81.6435 177.409 86.7074 177.409 94.095H189.409C189.409 84.5389 186.833 76.2566 181.016 69.9931L172.223 78.1585ZM177.409 94.095C177.409 100.218 175.732 105.645 172.369 110.545L182.263 117.335C187.024 110.398 189.409 102.595 189.409 94.095H177.409ZM172.369 110.545C169.07 115.352 163.956 119.475 156.608 122.729L161.467 133.701C170.367 129.76 177.438 124.366 182.263 117.335L172.369 110.545ZM156.674 122.7C149.492 125.778 140.479 127.437 129.444 127.437V139.437C141.62 139.437 152.336 137.615 161.401 133.73L156.674 122.7Z" fill="white"/>
<path d="M129.444 133.437C119.579 133.437 110.005 132.219 100.721 129.781C91.4365 127.344 83.8931 124.095 78.0904 120.033L89.4056 94.6173C94.8601 98.2149 101.185 101.116 108.38 103.321C115.576 105.526 122.655 106.629 129.618 106.629C142.848 106.629 149.463 103.321 149.463 96.7062C149.463 93.2246 147.548 90.6715 143.719 89.0467C140.005 87.3059 133.97 85.5071 125.614 83.6502C116.446 81.6773 108.786 79.5884 102.636 77.3834C96.4848 75.0623 91.2044 71.4066 86.7944 66.4163C82.3844 61.426 80.1793 54.6949 80.1793 46.223C80.1793 38.7956 82.2103 32.1226 86.2721 26.2038C90.334 20.1691 96.3688 15.4109 104.376 11.9293C112.5 8.44767 122.423 6.70687 134.144 6.70687C142.152 6.70687 150.043 7.6353 157.819 9.49216C165.595 11.233 172.442 13.8442 178.36 17.3257L167.742 42.9155C156.136 36.6486 144.879 33.5152 133.97 33.5152C127.123 33.5152 122.133 34.5597 118.999 36.6486C115.866 38.6215 114.299 41.2327 114.299 44.4822C114.299 47.7317 116.156 50.1689 119.87 51.7936C123.583 53.4183 129.56 55.1011 137.8 56.8419C147.084 58.8148 154.744 60.9618 160.778 63.2829C166.929 65.4879 172.21 69.0855 176.62 74.0758C181.146 78.9501 183.409 85.6231 183.409 94.095C183.409 101.406 181.378 108.021 177.316 113.94C173.254 119.859 167.161 124.617 159.038 128.215C150.914 131.696 141.049 133.437 129.444 133.437Z" fill="#333333"/>
<path d="M117.829 104.669V132H8.68069V110.414L70.1309 37.4746H10.2474V10.144H115.218V31.7299L53.7674 104.669H117.829Z" fill="#333333"/>
<path d="M117.829 104.669H123.829V98.6694H117.829V104.669ZM117.829 132V138H123.829V132H117.829ZM8.68069 132H2.68069V138H8.68069V132ZM8.68069 110.414L4.09208 106.548L2.68069 108.224V110.414H8.68069ZM70.1309 37.4746L74.7196 41.3404L83.0313 31.4746H70.1309V37.4746ZM10.2474 37.4746H4.24742V43.4746H10.2474V37.4746ZM10.2474 10.144V4.14399H4.24742V10.144H10.2474ZM115.218 10.144H121.218V4.14399H115.218V10.144ZM115.218 31.7299L119.806 35.5957L121.218 33.9205V31.7299H115.218ZM53.7674 104.669L49.1788 100.804L40.867 110.669H53.7674V104.669ZM111.829 104.669V132H123.829V104.669H111.829ZM117.829 126H8.68069V138H117.829V126ZM14.6807 132V110.414H2.68069V132H14.6807ZM13.2693 114.28L74.7196 41.3404L65.5423 33.6087L4.09208 106.548L13.2693 114.28ZM70.1309 31.4746H10.2474V43.4746H70.1309V31.4746ZM16.2474 37.4746V10.144H4.24742V37.4746H16.2474ZM10.2474 16.144H115.218V4.14399H10.2474V16.144ZM109.218 10.144V31.7299H121.218V10.144H109.218ZM110.629 27.8641L49.1788 100.804L58.356 108.535L119.806 35.5957L110.629 27.8641ZM53.7674 110.669H117.829V98.6694H53.7674V110.669Z" fill="white"/>
<path d="M117.829 104.669V132H8.68069V110.414L70.1309 37.4746H10.2474V10.144H115.218V31.7299L53.7674 104.669H117.829Z" fill="#333333"/>
<mask id="mask0" mask-type="alpha" maskUnits="userSpaceOnUse" x="62" y="76" width="78" height="71">
<rect x="62" y="76" width="78" height="71" fill="#333333"/>
</mask>
<g mask="url(#mask0)">
<path d="M129.444 133.437C119.579 133.437 110.005 132.219 100.721 129.781C91.4364 127.344 83.8929 124.095 78.0903 120.033L89.4055 94.6173C94.86 98.2149 101.185 101.116 108.38 103.321C115.575 105.526 122.655 106.629 129.618 106.629C142.848 106.629 149.463 103.321 149.463 96.7062C149.463 93.2246 147.548 90.6715 143.718 89.0467C140.005 87.3059 133.97 85.5071 125.614 83.6502C116.446 81.6773 108.786 79.5884 102.636 77.3834C96.4847 75.0623 91.2043 71.4066 86.7943 66.4163C82.3842 61.426 80.1792 54.6949 80.1792 46.223C80.1792 38.7956 82.2102 32.1226 86.272 26.2038C90.3339 20.1691 96.3687 15.4109 104.376 11.9293C112.5 8.44767 122.423 6.70687 134.144 6.70687C142.152 6.70687 150.043 7.6353 157.819 9.49216C165.594 11.233 172.442 13.8442 178.36 17.3257L167.741 42.9155C156.136 36.6486 144.879 33.5152 133.97 33.5152C127.123 33.5152 122.133 34.5597 118.999 36.6486C115.866 38.6215 114.299 41.2327 114.299 44.4822C114.299 47.7317 116.156 50.1689 119.869 51.7936C123.583 53.4183 129.56 55.1011 137.8 56.8419C147.084 58.8148 154.743 60.9618 160.778 63.2829C166.929 65.4879 172.21 69.0855 176.62 74.0758C181.146 78.9501 183.409 85.6231 183.409 94.095C183.409 101.406 181.378 108.021 177.316 113.94C173.254 119.859 167.161 124.617 159.037 128.215C150.914 131.696 141.049 133.437 129.444 133.437Z" fill="#333333"/>
<path d="M100.721 129.781L102.244 123.978L100.721 129.781ZM78.0903 120.033L72.6089 117.593L70.5971 122.112L74.6495 124.948L78.0903 120.033ZM89.4055 94.6173L92.709 89.6086L86.8021 85.7126L83.9241 92.177L89.4055 94.6173ZM108.38 103.321L110.138 97.5846L110.138 97.5846L108.38 103.321ZM143.718 89.0467L141.172 94.4795L141.273 94.5267L141.375 94.5702L143.718 89.0467ZM125.614 83.6502L126.916 77.7931L126.896 77.7887L126.876 77.7845L125.614 83.6502ZM102.636 77.3834L100.517 82.997L100.564 83.0146L100.611 83.0314L102.636 77.3834ZM86.272 26.2038L91.2191 29.5989L91.2344 29.5766L91.2495 29.5541L86.272 26.2038ZM104.376 11.9293L102.013 6.41441L101.998 6.42059L101.984 6.42685L104.376 11.9293ZM157.819 9.49216L156.425 15.3281L156.467 15.3379L156.508 15.3472L157.819 9.49216ZM178.36 17.3257L183.902 19.6254L185.904 14.8019L181.402 12.1541L178.36 17.3257ZM167.741 42.9155L164.891 48.1949L170.737 51.3519L173.283 45.2152L167.741 42.9155ZM118.999 36.6486L122.196 41.726L122.262 41.6843L122.327 41.6409L118.999 36.6486ZM119.869 51.7936L117.465 57.2905L117.465 57.2905L119.869 51.7936ZM137.8 56.8419L139.047 50.973L139.04 50.9715L137.8 56.8419ZM160.778 63.2829L158.624 68.8829L158.689 68.9077L158.753 68.9309L160.778 63.2829ZM176.62 74.0758L172.124 78.049L172.173 78.1044L172.223 78.1585L176.62 74.0758ZM177.316 113.94L172.369 110.545L172.369 110.545L177.316 113.94ZM159.037 128.215L161.401 133.73L161.434 133.715L161.467 133.701L159.037 128.215ZM129.444 127.437C120.079 127.437 111.017 126.281 102.244 123.978L99.1973 135.585C108.992 138.156 119.08 139.437 129.444 139.437V127.437ZM102.244 123.978C93.4185 121.661 86.5861 118.656 81.531 115.118L74.6495 124.948C81.1997 129.534 89.4543 133.027 99.1973 135.585L102.244 123.978ZM83.5716 122.473L94.8868 97.0576L83.9241 92.177L72.6089 117.593L83.5716 122.473ZM86.1019 99.6259C92.1002 103.582 98.9607 106.71 106.622 109.058L110.138 97.5846C103.409 95.5224 97.6197 92.8476 92.709 89.6086L86.1019 99.6259ZM106.622 109.058C114.341 111.423 122.013 112.629 129.618 112.629V100.629C123.297 100.629 116.81 99.6291 110.138 97.5846L106.622 109.058ZM129.618 112.629C136.539 112.629 142.624 111.795 147.185 109.515C149.551 108.332 151.685 106.67 153.215 104.376C154.77 102.043 155.463 99.4099 155.463 96.7062H143.463C143.463 97.3101 143.329 97.5708 143.23 97.7192C143.107 97.9051 142.76 98.3106 141.819 98.7816C139.765 99.8085 135.927 100.629 129.618 100.629V112.629ZM155.463 96.7062C155.463 93.7921 154.635 90.991 152.827 88.5802C151.07 86.2374 148.663 84.6266 146.062 83.5232L141.375 94.5702C142.604 95.0916 143.069 95.5697 143.227 95.7802C143.334 95.9225 143.463 96.1388 143.463 96.7062H155.463ZM146.265 83.614C141.92 81.5773 135.342 79.6657 126.916 77.7931L124.313 89.5074C132.598 91.3485 138.089 93.0345 141.172 94.4795L146.265 83.614ZM126.876 77.7845C117.866 75.8455 110.481 73.8219 104.66 71.7353L100.611 83.0314C107.092 85.3549 115.026 87.5091 124.352 89.516L126.876 77.7845ZM104.754 71.7697C99.5297 69.7983 95.0619 66.7111 91.2902 62.4431L82.2983 70.3895C87.3467 76.1021 93.4397 80.3262 100.517 82.997L104.754 71.7697ZM91.2902 62.4431C88.0905 58.8224 86.1792 53.642 86.1792 46.223H74.1792C74.1792 55.7478 76.6779 64.0296 82.2983 70.3895L91.2902 62.4431ZM86.1792 46.223C86.1792 39.963 87.8679 34.4821 91.2191 29.5989L81.3249 22.8088C76.5524 29.7631 74.1792 37.6282 74.1792 46.223H86.1792ZM91.2495 29.5541C94.5545 24.6439 99.5979 20.5494 106.769 17.4317L101.984 6.42685C93.1394 10.2723 86.1133 15.6942 81.2945 22.8536L91.2495 29.5541ZM106.74 17.4441C113.916 14.3687 122.984 12.7069 134.144 12.7069V0.706871C121.862 0.706871 111.084 2.52665 102.013 6.41441L106.74 17.4441ZM134.144 12.7069C141.683 12.7069 149.107 13.5804 156.425 15.3281L159.213 3.65626C150.98 1.69019 142.62 0.706871 134.144 0.706871V12.7069ZM156.508 15.3472C163.77 16.973 170.016 19.3783 175.318 22.4974L181.402 12.1541C174.867 8.30998 167.419 5.49288 159.13 3.6371L156.508 15.3472ZM172.819 15.0261L162.2 40.6159L173.283 45.2152L183.902 19.6254L172.819 15.0261ZM170.592 37.6361C158.293 30.9944 146.062 27.5152 133.97 27.5152V39.5152C143.696 39.5152 153.979 42.3028 164.891 48.1949L170.592 37.6361ZM133.97 27.5152C126.776 27.5152 120.311 28.5631 115.671 31.6563L122.327 41.6409C123.954 40.5562 127.469 39.5152 133.97 39.5152V27.5152ZM115.802 31.5712C111.211 34.4618 108.299 38.8531 108.299 44.4822H120.299C120.299 43.6124 120.52 42.7813 122.196 41.726L115.802 31.5712ZM108.299 44.4822C108.299 47.3357 109.144 50.0542 110.919 52.3835C112.633 54.6338 114.965 56.1969 117.465 57.2905L122.274 46.2967C121.06 45.7655 120.606 45.2977 120.464 45.1109C120.382 45.0031 120.299 44.8782 120.299 44.4822H108.299ZM117.465 57.2905C121.771 59.1745 128.251 60.9571 136.559 62.7123L139.04 50.9715C130.869 49.2452 125.396 47.6622 122.274 46.2967L117.465 57.2905ZM136.553 62.7109C145.657 64.6455 152.986 66.7143 158.624 68.8829L162.932 57.6828C156.501 55.2093 148.511 52.9841 139.047 50.973L136.553 62.7109ZM158.753 68.9309C163.934 70.788 168.37 73.8011 172.124 78.049L181.116 70.1026C176.049 64.37 169.924 60.1878 162.803 57.6348L158.753 68.9309ZM172.223 78.1585C175.459 81.6435 177.409 86.7074 177.409 94.095H189.409C189.409 84.5389 186.832 76.2566 181.016 69.9931L172.223 78.1585ZM177.409 94.095C177.409 100.218 175.731 105.645 172.369 110.545L182.263 117.335C187.024 110.398 189.409 102.595 189.409 94.095H177.409ZM172.369 110.545C169.07 115.352 163.956 119.475 156.608 122.729L161.467 133.701C170.367 129.76 177.438 124.366 182.263 117.335L172.369 110.545ZM156.674 122.7C149.491 125.778 140.479 127.437 129.444 127.437V139.437C141.62 139.437 152.336 137.615 161.401 133.73L156.674 122.7Z" fill="white"/>
<path d="M129.444 133.437C119.579 133.437 110.005 132.219 100.721 129.781C91.4364 127.344 83.8929 124.095 78.0903 120.033L89.4055 94.6173C94.86 98.2149 101.185 101.116 108.38 103.321C115.575 105.526 122.655 106.629 129.618 106.629C142.848 106.629 149.463 103.321 149.463 96.7062C149.463 93.2246 147.548 90.6715 143.718 89.0467C140.005 87.3059 133.97 85.5071 125.614 83.6502C116.446 81.6773 108.786 79.5884 102.636 77.3834C96.4847 75.0623 91.2043 71.4066 86.7943 66.4163C82.3842 61.426 80.1792 54.6949 80.1792 46.223C80.1792 38.7956 82.2102 32.1226 86.272 26.2038C90.3339 20.1691 96.3687 15.4109 104.376 11.9293C112.5 8.44767 122.423 6.70687 134.144 6.70687C142.152 6.70687 150.043 7.6353 157.819 9.49216C165.594 11.233 172.442 13.8442 178.36 17.3257L167.741 42.9155C156.136 36.6486 144.879 33.5152 133.97 33.5152C127.123 33.5152 122.133 34.5597 118.999 36.6486C115.866 38.6215 114.299 41.2327 114.299 44.4822C114.299 47.7317 116.156 50.1689 119.869 51.7936C123.583 53.4183 129.56 55.1011 137.8 56.8419C147.084 58.8148 154.743 60.9618 160.778 63.2829C166.929 65.4879 172.21 69.0855 176.62 74.0758C181.146 78.9501 183.409 85.6231 183.409 94.095C183.409 101.406 181.378 108.021 177.316 113.94C173.254 119.859 167.161 124.617 159.037 128.215C150.914 131.696 141.049 133.437 129.444 133.437Z" fill="#333333"/>
</g>
</svg>
