<svg width="268" height="278" viewBox="0 0 268 278" fill="none" xmlns="http://www.w3.org/2000/svg">
<path d="M134 5L250.047 72V206L134 273L17.9526 206V72L134 5Z" fill="black" stroke="white" stroke-width="8"/>
<path d="M167.467 82.3664C178.027 82.3664 187.022 84.2813 194.449 88.111C201.992 91.9408 208.317 97.8015 213.424 105.693L199.323 118.401C196.074 111.438 192.012 106.389 187.138 103.256C182.263 100.123 175.764 98.5558 167.641 98.5558C159.633 98.5558 153.424 100.181 149.014 103.43C144.604 106.564 142.399 110.625 142.399 115.616C142.399 120.258 144.546 123.972 148.84 126.757C153.134 129.426 160.793 131.747 171.819 133.72C182.147 135.577 190.329 137.956 196.364 140.857C202.515 143.643 206.983 147.182 209.768 151.476C212.553 155.654 213.946 160.876 213.946 167.143C213.946 173.874 212.031 179.793 208.201 184.9C204.372 190.006 198.975 193.952 192.012 196.737C185.165 199.406 177.215 200.741 168.163 200.741C144.836 200.741 128.357 192.965 118.724 177.414L131.78 164.358C135.494 171.321 140.252 176.428 146.055 179.677C151.973 182.927 159.285 184.551 167.989 184.551C176.229 184.551 182.67 183.159 187.312 180.373C192.07 177.472 194.449 173.41 194.449 168.188C194.449 164.01 192.302 160.644 188.008 158.091C183.83 155.538 176.461 153.275 165.9 151.302C155.339 149.329 146.925 146.892 140.658 143.991C134.391 141.089 129.807 137.492 126.906 133.198C124.121 128.904 122.728 123.681 122.728 117.531C122.728 111.032 124.527 105.113 128.124 99.7744C131.722 94.4359 136.886 90.2 143.618 87.0666C150.465 83.9331 158.414 82.3664 167.467 82.3664Z" fill="white"/>
<path d="M194.449 88.111L191.699 93.4439L191.716 93.4525L191.733 93.461L194.449 88.111ZM213.424 105.693L217.44 110.15L221.239 106.727L218.461 102.434L213.424 105.693ZM199.323 118.401L193.886 120.938L197.316 128.287L203.34 122.858L199.323 118.401ZM149.014 103.43L152.489 108.321L152.532 108.291L152.573 108.26L149.014 103.43ZM148.84 126.757L145.575 131.791L145.623 131.822L145.672 131.853L148.84 126.757ZM171.819 133.72L172.88 127.815L172.875 127.814L171.819 133.72ZM196.364 140.857L193.764 146.265L193.826 146.295L193.889 146.323L196.364 140.857ZM209.768 151.476L204.734 154.741L204.755 154.773L204.776 154.804L209.768 151.476ZM192.012 196.737L194.191 202.327L194.216 202.318L194.24 202.308L192.012 196.737ZM118.724 177.414L114.482 173.171L111.12 176.533L113.623 180.574L118.724 177.414ZM131.78 164.358L137.074 161.535L133.264 154.389L127.538 160.115L131.78 164.358ZM146.055 179.677L143.123 184.912L143.145 184.924L143.167 184.937L146.055 179.677ZM187.312 180.373L190.399 185.518L190.417 185.507L190.435 185.496L187.312 180.373ZM188.008 158.091L184.879 163.211L184.91 163.23L184.942 163.248L188.008 158.091ZM165.9 151.302L167.002 145.404L167.002 145.404L165.9 151.302ZM140.658 143.991L143.179 138.546L143.179 138.546L140.658 143.991ZM126.906 133.198L121.872 136.463L121.903 136.51L121.934 136.557L126.906 133.198ZM143.618 87.0666L141.121 81.6107L141.103 81.6188L141.085 81.6271L143.618 87.0666ZM167.467 88.3664C177.317 88.3664 185.317 90.1529 191.699 93.4439L197.199 82.7782C188.726 78.4096 178.738 76.3664 167.467 76.3664V88.3664ZM191.733 93.461C198.229 96.7593 203.79 101.849 208.386 108.953L218.461 102.434C212.845 93.7537 205.755 87.1222 197.165 82.761L191.733 93.461ZM209.407 101.236L195.306 113.944L203.34 122.858L217.44 110.15L209.407 101.236ZM204.76 115.864C201.184 108.201 196.473 102.125 190.382 98.2089L183.893 108.303C187.55 110.654 190.963 114.675 193.886 120.938L204.76 115.864ZM190.382 98.2089C184.225 94.2505 176.471 92.5558 167.641 92.5558V104.556C175.057 104.556 180.302 105.995 183.893 108.303L190.382 98.2089ZM167.641 92.5558C158.919 92.5558 151.274 94.3119 145.455 98.5997L152.573 108.26C155.574 106.049 160.347 104.556 167.641 104.556V92.5558ZM145.539 98.539C139.701 102.687 136.399 108.499 136.399 115.616H148.399C148.399 112.752 149.507 110.44 152.489 108.321L145.539 98.539ZM136.399 115.616C136.399 122.526 139.783 128.033 145.575 131.791L152.105 121.723C149.309 119.91 148.399 117.99 148.399 115.616H136.399ZM145.672 131.853C151.018 135.176 159.677 137.643 170.762 139.626L172.875 127.814C161.91 125.852 155.25 123.677 152.008 121.661L145.672 131.853ZM170.757 139.625C180.818 141.434 188.412 143.691 193.764 146.265L198.964 135.45C192.247 132.22 183.477 129.72 172.88 127.815L170.757 139.625ZM193.889 146.323C199.321 148.783 202.744 151.673 204.734 154.741L214.802 148.211C211.221 142.691 205.708 138.502 198.839 135.392L193.889 146.323ZM204.776 154.804C206.758 157.777 207.946 161.767 207.946 167.143H219.946C219.946 159.986 218.349 153.531 214.76 148.148L204.776 154.804ZM207.946 167.143C207.946 172.652 206.408 177.291 203.401 181.3L213.001 188.5C217.654 182.296 219.946 175.097 219.946 167.143H207.946ZM203.401 181.3C200.34 185.382 195.906 188.717 189.783 191.166L194.24 202.308C202.044 199.186 208.403 194.63 213.001 188.5L203.401 181.3ZM189.833 191.147C183.82 193.49 176.637 194.741 168.163 194.741V206.741C177.793 206.741 186.509 205.322 194.191 202.327L189.833 191.147ZM168.163 194.741C146.261 194.741 132.059 187.548 123.825 174.255L113.623 180.574C124.654 198.382 143.411 206.741 168.163 206.741V194.741ZM122.967 181.657L136.023 168.601L127.538 160.115L114.482 173.171L122.967 181.657ZM126.486 167.182C130.638 174.966 136.144 181.004 143.123 184.912L148.986 174.442C144.36 171.851 140.35 167.676 137.074 161.535L126.486 167.182ZM143.167 184.937C150.19 188.792 158.56 190.551 167.989 190.551V178.551C160.01 178.551 153.757 177.061 148.942 174.418L143.167 184.937ZM167.989 190.551C176.792 190.551 184.459 189.082 190.399 185.518L184.225 175.228C180.88 177.235 175.665 178.551 167.989 178.551V190.551ZM190.435 185.496C196.835 181.594 200.449 175.667 200.449 168.188H188.449C188.449 171.153 187.305 173.35 184.188 175.251L190.435 185.496ZM200.449 168.188C200.449 161.448 196.769 156.32 191.074 152.934L184.942 163.248C187.835 164.969 188.449 166.571 188.449 168.188H200.449ZM191.137 152.972C185.949 149.801 177.629 147.389 167.002 145.404L164.798 157.2C175.293 159.161 181.711 161.275 184.879 163.211L191.137 152.972ZM167.002 145.404C156.692 143.478 148.816 141.156 143.179 138.546L138.137 149.436C145.034 152.628 153.986 155.18 164.798 157.2L167.002 145.404ZM143.179 138.546C137.584 135.955 133.996 132.974 131.877 129.839L121.934 136.557C125.619 142.01 131.199 146.223 138.137 149.436L143.179 138.546ZM131.94 129.933C129.902 126.792 128.728 122.759 128.728 117.531H116.728C116.728 124.604 118.339 131.016 121.872 136.463L131.94 129.933ZM128.728 117.531C128.728 112.214 130.177 107.465 133.1 103.128L123.149 96.4213C118.877 102.761 116.728 109.849 116.728 117.531H128.728ZM133.1 103.128C136 98.8251 140.253 95.2509 146.15 92.5061L141.085 81.6271C133.52 85.1491 127.445 90.0468 123.149 96.4213L133.1 103.128ZM146.114 92.5224C152.036 89.8125 159.105 88.3664 167.467 88.3664V76.3664C157.724 76.3664 148.894 78.0537 141.121 81.6107L146.114 92.5224Z" fill="black"/>
<path d="M167.467 82.3664C178.027 82.3664 187.022 84.2813 194.449 88.111C201.992 91.9408 208.317 97.8015 213.424 105.693L199.323 118.401C196.074 111.438 192.012 106.389 187.138 103.256C182.263 100.123 175.764 98.5558 167.641 98.5558C159.633 98.5558 153.424 100.181 149.014 103.43C144.604 106.564 142.399 110.625 142.399 115.616C142.399 120.258 144.546 123.972 148.84 126.757C153.134 129.426 160.793 131.747 171.819 133.72C182.147 135.577 190.329 137.956 196.364 140.857C202.515 143.643 206.983 147.182 209.768 151.476C212.553 155.654 213.946 160.876 213.946 167.143C213.946 173.874 212.031 179.793 208.201 184.9C204.372 190.006 198.975 193.952 192.012 196.737C185.165 199.406 177.215 200.741 168.163 200.741C144.836 200.741 128.357 192.965 118.724 177.414L131.78 164.358C135.494 171.321 140.252 176.428 146.055 179.677C151.973 182.927 159.285 184.551 167.989 184.551C176.229 184.551 182.67 183.159 187.312 180.373C192.07 177.472 194.449 173.41 194.449 168.188C194.449 164.01 192.302 160.644 188.008 158.091C183.83 155.538 176.461 153.275 165.9 151.302C155.339 149.329 146.925 146.892 140.658 143.991C134.391 141.089 129.807 137.492 126.906 133.198C124.121 128.904 122.728 123.681 122.728 117.531C122.728 111.032 124.527 105.113 128.124 99.7744C131.722 94.4359 136.886 90.2 143.618 87.0666C150.465 83.9331 158.414 82.3664 167.467 82.3664Z" fill="white"/>
<path d="M150.242 183.159V199H57.4569V183.855L126.915 99.9485H59.0236V84.1072H148.153V99.2522L78.6947 183.159H150.242Z" fill="white"/>
<path d="M150.242 183.159H156.242V177.159H150.242V183.159ZM150.242 199V205H156.242V199H150.242ZM57.4569 199H51.4569V205H57.4569V199ZM57.4569 183.855L52.835 180.029L51.4569 181.694V183.855H57.4569ZM126.915 99.9485L131.537 103.774L139.671 93.9485H126.915V99.9485ZM59.0236 99.9485H53.0236V105.948H59.0236V99.9485ZM59.0236 84.1072V78.1072H53.0236V84.1072H59.0236ZM148.153 84.1072H154.153V78.1072H148.153V84.1072ZM148.153 99.2522L152.774 103.078L154.153 101.413V99.2522H148.153ZM78.6947 183.159L74.0728 179.333L65.9388 189.159H78.6947V183.159ZM144.242 183.159V199H156.242V183.159H144.242ZM150.242 193H57.4569V205H150.242V193ZM63.4569 199V183.855H51.4569V199H63.4569ZM62.0788 187.681L131.537 103.774L122.293 96.1225L52.835 180.029L62.0788 187.681ZM126.915 93.9485H59.0236V105.948H126.915V93.9485ZM65.0236 99.9485V84.1072H53.0236V99.9485H65.0236ZM59.0236 90.1072H148.153V78.1072H59.0236V90.1072ZM142.153 84.1072V99.2522H154.153V84.1072H142.153ZM143.531 95.4262L74.0728 179.333L83.3165 186.985L152.774 103.078L143.531 95.4262ZM78.6947 189.159H150.242V177.159H78.6947V189.159Z" fill="black"/>
<path d="M150.242 183.159V199H57.4569V183.855L126.915 99.9485H59.0236V84.1072H148.153V99.2522L78.6947 183.159H150.242Z" fill="white"/>
<mask id="mask0" mask-type="alpha" maskUnits="userSpaceOnUse" x="89" y="171" width="79" height="29">
<rect x="89.2941" y="171" width="78.2851" height="29" fill="#C4C4C4"/>
</mask>
<g mask="url(#mask0)">
<path d="M167.467 82.3664C178.027 82.3664 187.022 84.2813 194.449 88.111C201.992 91.9408 208.317 97.8015 213.424 105.693L199.323 118.401C196.074 111.438 192.012 106.389 187.138 103.256C182.263 100.123 175.764 98.5558 167.641 98.5558C159.633 98.5558 153.424 100.181 149.014 103.43C144.604 106.564 142.399 110.625 142.399 115.616C142.399 120.258 144.546 123.972 148.84 126.757C153.134 129.426 160.793 131.747 171.819 133.72C182.147 135.577 190.329 137.956 196.364 140.857C202.515 143.643 206.983 147.182 209.768 151.476C212.553 155.654 213.946 160.876 213.946 167.143C213.946 173.874 212.031 179.793 208.201 184.9C204.372 190.006 198.975 193.952 192.012 196.737C185.165 199.406 177.215 200.741 168.163 200.741C144.836 200.741 128.357 192.965 118.724 177.414L131.78 164.358C135.494 171.321 140.252 176.428 146.055 179.677C151.973 182.927 159.285 184.551 167.989 184.551C176.229 184.551 182.67 183.159 187.312 180.373C192.07 177.472 194.449 173.41 194.449 168.188C194.449 164.01 192.302 160.644 188.008 158.091C183.83 155.538 176.461 153.275 165.9 151.302C155.339 149.329 146.925 146.892 140.658 143.991C134.391 141.089 129.807 137.492 126.906 133.198C124.121 128.904 122.728 123.681 122.728 117.531C122.728 111.032 124.527 105.113 128.124 99.7744C131.722 94.4359 136.886 90.2 143.618 87.0666C150.465 83.9331 158.414 82.3664 167.467 82.3664Z" fill="white"/>
<path d="M194.449 88.111L191.699 93.4439L191.716 93.4525L191.733 93.461L194.449 88.111ZM213.424 105.693L217.44 110.15L221.239 106.727L218.461 102.434L213.424 105.693ZM199.323 118.401L193.886 120.938L197.316 128.287L203.34 122.858L199.323 118.401ZM149.014 103.43L152.489 108.321L152.532 108.291L152.573 108.26L149.014 103.43ZM148.84 126.757L145.575 131.791L145.623 131.822L145.672 131.853L148.84 126.757ZM171.819 133.72L172.88 127.815L172.875 127.814L171.819 133.72ZM196.364 140.857L193.764 146.265L193.826 146.295L193.889 146.323L196.364 140.857ZM209.768 151.476L204.734 154.741L204.755 154.773L204.776 154.804L209.768 151.476ZM192.012 196.737L194.191 202.327L194.216 202.318L194.24 202.308L192.012 196.737ZM118.724 177.414L114.481 173.171L111.12 176.533L113.623 180.574L118.724 177.414ZM131.78 164.358L137.074 161.535L133.264 154.389L127.537 160.115L131.78 164.358ZM146.055 179.677L143.123 184.912L143.145 184.924L143.167 184.937L146.055 179.677ZM187.312 180.373L190.399 185.518L190.417 185.507L190.435 185.496L187.312 180.373ZM188.008 158.091L184.879 163.211L184.91 163.23L184.942 163.248L188.008 158.091ZM165.9 151.302L167.002 145.404L167.002 145.404L165.9 151.302ZM140.658 143.991L143.179 138.546L143.179 138.546L140.658 143.991ZM126.906 133.198L121.872 136.463L121.903 136.51L121.934 136.557L126.906 133.198ZM143.618 87.0666L141.121 81.6107L141.103 81.6188L141.085 81.6271L143.618 87.0666ZM167.467 88.3664C177.317 88.3664 185.317 90.1529 191.699 93.4439L197.199 82.7782C188.726 78.4096 178.738 76.3664 167.467 76.3664V88.3664ZM191.733 93.461C198.229 96.7593 203.79 101.849 208.386 108.953L218.461 102.434C212.845 93.7537 205.755 87.1222 197.165 82.761L191.733 93.461ZM209.407 101.236L195.306 113.944L203.34 122.858L217.44 110.15L209.407 101.236ZM204.76 115.864C201.184 108.201 196.473 102.125 190.382 98.2089L183.893 108.303C187.55 110.654 190.963 114.675 193.886 120.938L204.76 115.864ZM190.382 98.2089C184.225 94.2505 176.471 92.5558 167.641 92.5558V104.556C175.057 104.556 180.302 105.995 183.893 108.303L190.382 98.2089ZM167.641 92.5558C158.919 92.5558 151.274 94.3119 145.455 98.5997L152.573 108.26C155.574 106.049 160.347 104.556 167.641 104.556V92.5558ZM145.539 98.539C139.701 102.687 136.399 108.499 136.399 115.616H148.399C148.399 112.752 149.507 110.44 152.489 108.321L145.539 98.539ZM136.399 115.616C136.399 122.526 139.783 128.033 145.575 131.791L152.105 121.723C149.309 119.91 148.399 117.99 148.399 115.616H136.399ZM145.672 131.853C151.018 135.176 159.677 137.643 170.762 139.626L172.875 127.814C161.91 125.852 155.25 123.677 152.008 121.661L145.672 131.853ZM170.757 139.625C180.818 141.434 188.412 143.691 193.764 146.265L198.964 135.45C192.247 132.22 183.477 129.72 172.88 127.815L170.757 139.625ZM193.889 146.323C199.321 148.783 202.744 151.673 204.734 154.741L214.802 148.211C211.221 142.691 205.708 138.502 198.839 135.392L193.889 146.323ZM204.776 154.804C206.758 157.777 207.946 161.767 207.946 167.143H219.946C219.946 159.986 218.349 153.531 214.76 148.148L204.776 154.804ZM207.946 167.143C207.946 172.652 206.408 177.291 203.401 181.3L213.001 188.5C217.654 182.296 219.946 175.097 219.946 167.143H207.946ZM203.401 181.3C200.34 185.382 195.906 188.717 189.783 191.166L194.24 202.308C202.044 199.186 208.403 194.63 213.001 188.5L203.401 181.3ZM189.833 191.147C183.82 193.49 176.637 194.741 168.163 194.741V206.741C177.793 206.741 186.509 205.322 194.191 202.327L189.833 191.147ZM168.163 194.741C146.261 194.741 132.059 187.548 123.825 174.255L113.623 180.574C124.654 198.382 143.411 206.741 168.163 206.741V194.741ZM122.967 181.657L136.023 168.601L127.537 160.115L114.481 173.171L122.967 181.657ZM126.486 167.182C130.638 174.966 136.144 181.004 143.123 184.912L148.986 174.442C144.36 171.851 140.35 167.676 137.074 161.535L126.486 167.182ZM143.167 184.937C150.19 188.792 158.56 190.551 167.989 190.551V178.551C160.01 178.551 153.757 177.061 148.942 174.418L143.167 184.937ZM167.989 190.551C176.792 190.551 184.459 189.082 190.399 185.518L184.225 175.228C180.88 177.235 175.665 178.551 167.989 178.551V190.551ZM190.435 185.496C196.835 181.594 200.449 175.667 200.449 168.188H188.449C188.449 171.153 187.305 173.35 184.188 175.251L190.435 185.496ZM200.449 168.188C200.449 161.448 196.769 156.32 191.074 152.934L184.942 163.248C187.835 164.969 188.449 166.571 188.449 168.188H200.449ZM191.137 152.972C185.949 149.801 177.629 147.389 167.002 145.404L164.798 157.2C175.293 159.161 181.711 161.275 184.879 163.211L191.137 152.972ZM167.002 145.404C156.692 143.478 148.816 141.156 143.179 138.546L138.137 149.436C145.034 152.628 153.986 155.18 164.798 157.2L167.002 145.404ZM143.179 138.546C137.584 135.955 133.996 132.974 131.877 129.839L121.934 136.557C125.619 142.01 131.199 146.223 138.137 149.436L143.179 138.546ZM131.94 129.933C129.902 126.792 128.728 122.759 128.728 117.531H116.728C116.728 124.604 118.339 131.016 121.872 136.463L131.94 129.933ZM128.728 117.531C128.728 112.214 130.177 107.465 133.1 103.128L123.149 96.4213C118.877 102.761 116.728 109.849 116.728 117.531H128.728ZM133.1 103.128C136 98.8251 140.253 95.2509 146.15 92.5061L141.085 81.6271C133.52 85.1491 127.445 90.0468 123.149 96.4213L133.1 103.128ZM146.114 92.5224C152.036 89.8125 159.105 88.3664 167.467 88.3664V76.3664C157.724 76.3664 148.894 78.0537 141.121 81.6107L146.114 92.5224Z" fill="black"/>
<path d="M167.467 82.3664C178.027 82.3664 187.022 84.2813 194.449 88.111C201.992 91.9408 208.317 97.8015 213.424 105.693L199.323 118.401C196.074 111.438 192.012 106.389 187.138 103.256C182.263 100.123 175.764 98.5558 167.641 98.5558C159.633 98.5558 153.424 100.181 149.014 103.43C144.604 106.564 142.399 110.625 142.399 115.616C142.399 120.258 144.546 123.972 148.84 126.757C153.134 129.426 160.793 131.747 171.819 133.72C182.147 135.577 190.329 137.956 196.364 140.857C202.515 143.643 206.983 147.182 209.768 151.476C212.553 155.654 213.946 160.876 213.946 167.143C213.946 173.874 212.031 179.793 208.201 184.9C204.372 190.006 198.975 193.952 192.012 196.737C185.165 199.406 177.215 200.741 168.163 200.741C144.836 200.741 128.357 192.965 118.724 177.414L131.78 164.358C135.494 171.321 140.252 176.428 146.055 179.677C151.973 182.927 159.285 184.551 167.989 184.551C176.229 184.551 182.67 183.159 187.312 180.373C192.07 177.472 194.449 173.41 194.449 168.188C194.449 164.01 192.302 160.644 188.008 158.091C183.83 155.538 176.461 153.275 165.9 151.302C155.339 149.329 146.925 146.892 140.658 143.991C134.391 141.089 129.807 137.492 126.906 133.198C124.121 128.904 122.728 123.681 122.728 117.531C122.728 111.032 124.527 105.113 128.124 99.7744C131.722 94.4359 136.886 90.2 143.618 87.0666C150.465 83.9331 158.414 82.3664 167.467 82.3664Z" fill="white"/>
</g>
</svg>