<svg width="175" height="157" viewBox="0 0 175 157" fill="none" xmlns="http://www.w3.org/2000/svg">
<g clip-path="url(#clip0)">
<path d="M144.734 101.125C144.734 98.1783 144.11 95.6 142.864 93.39C141.674 91.1233 139.945 89.14 137.679 87.44C135.469 85.74 132.805 84.2667 129.689 83.02C126.629 81.7167 123.285 80.5267 119.659 79.45C114.785 78.0333 109.969 76.2767 105.209 74.18C100.505 72.0833 96.2838 69.5333 92.5438 66.53C88.8604 63.47 85.8571 59.9283 83.5338 55.905C81.2671 51.825 80.1338 47.1217 80.1338 41.795C80.1338 36.4683 81.2671 31.7083 83.5338 27.515C85.8571 23.265 88.9454 19.6667 92.7988 16.72C96.6521 13.7733 101.129 11.5067 106.229 9.92C111.329 8.33333 116.655 7.54 122.209 7.54C128.159 7.54 133.712 8.475 138.869 10.345C144.082 12.1583 148.615 14.7367 152.469 18.08C156.379 21.3667 159.467 25.3333 161.734 29.98C164 34.57 165.162 39.67 165.219 45.28H144.819C144.535 42.1633 143.855 39.33 142.779 36.78C141.759 34.1733 140.285 31.935 138.359 30.065C136.489 28.195 134.194 26.75 131.474 25.73C128.754 24.71 125.609 24.2 122.039 24.2C118.979 24.2 116.145 24.5967 113.539 25.39C110.932 26.1833 108.665 27.345 106.739 28.875C104.869 30.405 103.395 32.2467 102.319 34.4C101.242 36.5533 100.704 38.99 100.704 41.71C100.704 44.6 101.44 47.1217 102.914 49.275C104.387 51.3717 106.314 53.2133 108.694 54.8C111.074 56.3867 113.794 57.775 116.854 58.965C119.97 60.0983 123.2 61.1467 126.544 62.11C131.7 63.64 136.63 65.5383 141.334 67.805C146.037 70.015 150.174 72.7067 153.744 75.88C157.314 78.9967 160.147 82.6233 162.244 86.76C164.34 90.8967 165.389 95.6283 165.389 100.955C165.389 106.452 164.227 111.297 161.904 115.49C159.58 119.683 156.464 123.197 152.554 126.03C148.644 128.863 144.11 131.017 138.954 132.49C133.797 133.907 128.414 134.615 122.804 134.615C119.007 134.615 115.239 134.247 111.499 133.51C107.759 132.773 104.16 131.668 100.704 130.195C97.3038 128.722 94.1304 126.908 91.1838 124.755C88.2371 122.545 85.6588 120.023 83.4488 117.19C81.2954 114.3 79.5954 111.098 78.3488 107.585C77.1021 104.015 76.4504 100.105 76.3938 95.855H96.8788C97.1621 99.595 97.9838 102.853 99.3438 105.63C100.704 108.407 102.517 110.73 104.784 112.6C107.05 114.413 109.685 115.802 112.689 116.765C115.749 117.672 119.12 118.125 122.804 118.125C125.864 118.125 128.725 117.757 131.389 117.02C134.052 116.283 136.375 115.207 138.359 113.79C140.342 112.317 141.9 110.532 143.034 108.435C144.167 106.282 144.734 103.845 144.734 101.125Z" fill="white"/>
<path d="M142.864 93.39L137.551 96.179L137.593 96.2591L137.638 96.3379L142.864 93.39ZM137.679 87.44L134.021 92.1957L134.05 92.218L134.079 92.24L137.679 87.44ZM129.689 83.02L127.338 88.5401L127.399 88.5662L127.46 88.5909L129.689 83.02ZM119.659 79.45L121.366 73.6981L121.35 73.6933L121.334 73.6885L119.659 79.45ZM105.209 74.18L102.766 79.6601L102.778 79.6656L102.79 79.6709L105.209 74.18ZM92.5438 66.53L88.7097 71.1451L88.748 71.177L88.787 71.2083L92.5438 66.53ZM83.5338 55.905L78.2888 58.8189L78.313 58.8624L78.3379 58.9054L83.5338 55.905ZM83.5338 27.515L78.2691 24.637L78.2623 24.6494L78.2555 24.6619L83.5338 27.515ZM138.869 10.345L136.823 15.9856L136.86 15.999L136.898 16.012L138.869 10.345ZM152.469 18.08L148.537 22.6119L148.572 22.6427L148.608 22.6729L152.469 18.08ZM161.734 29.98L156.341 32.6105L156.348 32.6236L156.354 32.6367L161.734 29.98ZM165.219 45.28V51.28H171.28L171.218 45.2194L165.219 45.28ZM144.819 45.28L138.843 45.8232L139.339 51.28H144.819V45.28ZM142.779 36.78L137.191 38.9664L137.22 39.0405L137.251 39.1138L142.779 36.78ZM138.359 30.065L134.116 34.3076L134.148 34.3393L134.18 34.3705L138.359 30.065ZM113.539 25.39L115.286 31.13L113.539 25.39ZM106.739 28.875L103.007 24.1763L102.973 24.2035L102.939 24.2313L106.739 28.875ZM102.914 49.275L97.9619 52.6631L97.9831 52.694L98.0046 52.7247L102.914 49.275ZM116.854 58.965L114.679 64.557L114.741 64.5811L114.803 64.6038L116.854 58.965ZM126.544 62.11L128.25 56.3578L128.228 56.3511L128.205 56.3446L126.544 62.11ZM141.334 67.805L138.729 73.2101L138.755 73.2229L138.782 73.2354L141.334 67.805ZM153.744 75.88L149.758 80.3645L149.778 80.3823L149.798 80.3999L153.744 75.88ZM138.954 132.49L140.543 138.276L140.573 138.268L140.602 138.259L138.954 132.49ZM100.704 130.195L98.3181 135.7L98.3346 135.707L98.3512 135.715L100.704 130.195ZM91.1838 124.755L87.5838 129.555L87.6136 129.577L87.6437 129.599L91.1838 124.755ZM83.4488 117.19L78.6375 120.775L78.677 120.828L78.7178 120.88L83.4488 117.19ZM78.3488 107.585L72.6842 109.563L72.6892 109.577L72.6942 109.591L78.3488 107.585ZM76.3938 95.855V89.855H70.3132L70.3943 95.935L76.3938 95.855ZM96.8788 95.855L102.862 95.4018L102.441 89.855H96.8788V95.855ZM104.784 112.6L100.965 117.228L101 117.257L101.036 117.285L104.784 112.6ZM112.689 116.765L110.856 122.478L110.92 122.499L110.984 122.518L112.689 116.765ZM131.389 117.02L129.789 111.237L131.389 117.02ZM138.359 113.79L141.846 118.672L141.892 118.64L141.937 118.606L138.359 113.79ZM143.034 108.435L148.312 111.288L148.328 111.259L148.343 111.229L143.034 108.435ZM150.734 101.125C150.734 97.3136 149.92 93.6876 148.09 90.4421L137.638 96.3379C138.3 97.5124 138.734 99.0431 138.734 101.125H150.734ZM148.176 90.601C146.529 87.4642 144.182 84.8171 141.279 82.64L134.079 92.24C135.709 93.4629 136.818 94.7825 137.551 96.179L148.176 90.601ZM141.337 82.6843C138.612 80.588 135.445 78.8603 131.917 77.4491L127.46 88.5909C130.166 89.673 132.326 90.892 134.021 92.1957L141.337 82.6843ZM132.04 77.4999C128.744 76.0959 125.183 74.8311 121.366 73.6981L117.951 85.2019C121.388 86.2222 124.514 87.3374 127.338 88.5401L132.04 77.4999ZM121.334 73.6885C116.72 72.3474 112.152 70.6819 107.627 68.6891L102.79 79.6709C107.786 81.8714 112.851 83.7193 117.984 85.2115L121.334 73.6885ZM107.652 68.6999C103.385 66.7976 99.6105 64.5097 96.3006 61.8517L88.787 71.2083C92.957 74.557 97.6263 77.369 102.766 79.6601L107.652 68.6999ZM96.3779 61.9149C93.2234 59.2942 90.6872 56.2945 88.7297 52.9046L78.3379 58.9054C81.027 63.5622 84.4975 67.6458 88.7097 71.1451L96.3779 61.9149ZM88.7787 52.9911C87.0736 49.9219 86.1338 46.2479 86.1338 41.795H74.1338C74.1338 47.9954 75.4606 53.7281 78.2888 58.8189L88.7787 52.9911ZM86.1338 41.795C86.1338 37.3455 87.0726 33.586 88.812 30.3681L78.2555 24.6619C75.4616 29.8306 74.1338 35.5911 74.1338 41.795H86.1338ZM88.7985 30.393C90.719 26.8798 93.2551 23.9243 96.4435 21.4861L89.1541 11.9539C84.6358 15.409 80.9952 19.6502 78.2691 24.637L88.7985 30.393ZM96.4435 21.4861C99.6836 19.0084 103.516 17.0477 108.011 15.6491L104.446 4.19086C98.7417 5.96564 93.6206 8.53827 89.1541 11.9539L96.4435 21.4861ZM108.011 15.6491C112.511 14.2491 117.236 13.54 122.209 13.54V1.54C116.075 1.54 110.146 2.4176 104.446 4.19086L108.011 15.6491ZM122.209 13.54C127.52 13.54 132.376 14.3727 136.823 15.9856L140.914 4.70443C135.048 2.57726 128.797 1.54 122.209 1.54V13.54ZM136.898 16.012C141.451 17.5956 145.305 19.8077 148.537 22.6119L156.401 13.5481C151.926 9.66566 146.714 6.72107 140.84 4.67802L136.898 16.012ZM148.608 22.6729C151.868 25.413 154.438 28.7084 156.341 32.6105L167.126 27.3495C164.497 21.9582 160.89 17.3203 156.329 13.4871L148.608 22.6729ZM156.354 32.6367C158.185 36.3438 159.171 40.5439 159.219 45.3406L171.218 45.2194C171.154 38.7961 169.816 32.7962 167.114 27.3233L156.354 32.6367ZM165.219 39.28H144.819V51.28H165.219V39.28ZM150.794 44.7368C150.462 41.083 149.653 37.6354 148.306 34.4462L137.251 39.1138C138.058 41.0246 138.609 43.2436 138.843 45.8232L150.794 44.7368ZM148.366 34.5936C147.047 31.2228 145.106 28.2525 142.538 25.7595L134.18 34.3705C135.465 35.6175 136.47 37.1239 137.191 38.9664L148.366 34.5936ZM142.601 25.8224C140.068 23.2893 137.023 21.4029 133.581 20.112L129.367 31.348C131.365 32.0971 132.909 33.1007 134.116 34.3076L142.601 25.8224ZM133.581 20.112C130.052 18.789 126.169 18.2 122.039 18.2V30.2C125.048 30.2 127.455 30.631 129.367 31.348L133.581 20.112ZM122.039 18.2C118.459 18.2 115.03 18.6645 111.792 19.65L115.286 31.13C117.261 30.5288 119.499 30.2 122.039 30.2V18.2ZM111.792 19.65C108.542 20.6391 105.585 22.1298 103.007 24.1763L110.47 33.5737C111.746 32.5602 113.323 31.7275 115.286 31.13L111.792 19.65ZM102.939 24.2313C100.417 26.295 98.4086 28.8039 96.9522 31.7167L107.685 37.0833C108.382 35.6894 109.321 34.515 110.538 33.5187L102.939 24.2313ZM96.9522 31.7167C95.4077 34.8057 94.7038 38.1804 94.7038 41.71H106.704C106.704 39.7996 107.077 38.3009 107.685 37.0833L96.9522 31.7167ZM94.7038 41.71C94.7038 45.6735 95.733 49.4054 97.9619 52.6631L107.866 45.8869C107.148 44.8379 106.704 43.5265 106.704 41.71H94.7038ZM98.0046 52.7247C99.9517 55.4956 102.439 57.8414 105.366 59.7923L112.022 49.8077C110.188 48.5853 108.822 47.2478 107.823 45.8253L98.0046 52.7247ZM105.366 59.7923C108.156 61.6524 111.272 63.2321 114.679 64.557L119.028 53.373C116.315 52.3179 113.992 51.1209 112.022 49.8077L105.366 59.7923ZM114.803 64.6038C118.054 65.7859 121.414 66.8762 124.883 67.8754L128.205 56.3446C124.986 55.4172 121.887 54.4107 118.904 53.3262L114.803 64.6038ZM124.837 67.8621C129.695 69.3035 134.324 71.0871 138.729 73.2101L143.939 62.3999C138.937 59.9896 133.706 57.9765 128.25 56.3578L124.837 67.8621ZM138.782 73.2354C143.01 75.2219 146.654 77.6057 149.758 80.3645L157.73 71.3955C153.694 67.8077 149.064 64.8081 143.885 62.3746L138.782 73.2354ZM149.798 80.3999C152.8 83.0213 155.151 86.0382 156.892 89.4726L167.596 84.0474C165.143 79.2085 161.827 74.9721 157.69 71.3601L149.798 80.3999ZM156.892 89.4726C158.503 92.6515 159.389 96.4303 159.389 100.955H171.389C171.389 94.8264 170.178 89.1418 167.596 84.0474L156.892 89.4726ZM159.389 100.955C159.389 105.585 158.418 109.402 156.655 112.582L167.152 118.398C170.037 113.191 171.389 107.318 171.389 100.955H159.389ZM156.655 112.582C154.761 116.001 152.237 118.85 149.033 121.172L156.074 130.888C160.691 127.543 164.4 123.366 167.152 118.398L156.655 112.582ZM149.033 121.172C145.749 123.552 141.864 125.418 137.305 126.721L140.602 138.259C146.357 136.615 151.539 134.175 156.074 130.888L149.033 121.172ZM137.364 126.704C132.75 127.972 127.903 128.615 122.804 128.615V140.615C128.924 140.615 134.844 139.841 140.543 138.276L137.364 126.704ZM122.804 128.615C119.398 128.615 116.018 128.285 112.658 127.623L110.339 139.397C114.46 140.208 118.616 140.615 122.804 140.615V128.615ZM112.658 127.623C109.322 126.966 106.124 125.983 103.056 124.675L98.3512 135.715C102.197 137.354 106.196 138.581 110.339 139.397L112.658 127.623ZM103.089 124.69C100.091 123.39 97.3059 121.798 94.7239 119.911L87.6437 129.599C90.955 132.019 94.5163 134.053 98.3181 135.7L103.089 124.69ZM94.7838 119.955C92.2508 118.055 90.0554 115.904 88.1798 113.5L78.7178 120.88C81.2622 124.142 84.2234 127.035 87.5838 129.555L94.7838 119.955ZM88.2601 113.605C86.4774 111.213 85.0564 108.546 84.0033 105.579L72.6942 109.591C74.1345 113.651 76.1135 117.387 78.6375 120.775L88.2601 113.605ZM84.0133 105.607C83.0045 102.718 82.4423 99.4576 82.3932 95.775L70.3943 95.935C70.4585 100.752 71.1997 105.312 72.6842 109.563L84.0133 105.607ZM76.3938 101.855H96.8788V89.855H76.3938V101.855ZM90.8959 96.3082C91.2249 100.65 92.1971 104.679 93.9554 108.269L104.732 102.991C103.77 101.027 103.099 98.5395 102.862 95.4018L90.8959 96.3082ZM93.9554 108.269C95.6711 111.772 98.0056 114.786 100.965 117.228L108.602 107.972C107.029 106.674 105.736 105.041 104.732 102.991L93.9554 108.269ZM101.036 117.285C103.92 119.593 107.217 121.311 110.856 122.478L114.521 111.052C112.153 110.292 110.18 109.234 108.532 107.915L101.036 117.285ZM110.984 122.518C114.675 123.611 118.63 124.125 122.804 124.125V112.125C119.611 112.125 116.822 111.732 114.393 111.012L110.984 122.518ZM122.804 124.125C126.347 124.125 129.752 123.698 132.988 122.803L129.789 111.237C127.699 111.815 125.381 112.125 122.804 112.125V124.125ZM132.988 122.803C136.239 121.904 139.22 120.548 141.846 118.672L134.871 108.908C133.531 109.865 131.865 110.663 129.789 111.237L132.988 122.803ZM141.937 118.606C144.597 116.63 146.747 114.184 148.312 111.288L137.756 105.582C137.054 106.879 136.087 108.003 134.781 108.974L141.937 118.606ZM148.343 111.229C149.981 108.117 150.734 104.702 150.734 101.125H138.734C138.734 102.988 138.353 104.446 137.724 105.641L148.343 111.229Z" fill="black"/>
<path d="M144.734 101.125C144.734 98.1783 144.11 95.6 142.864 93.39C141.674 91.1233 139.945 89.14 137.679 87.44C135.469 85.74 132.805 84.2667 129.689 83.02C126.629 81.7167 123.285 80.5267 119.659 79.45C114.785 78.0333 109.969 76.2767 105.209 74.18C100.505 72.0833 96.2838 69.5333 92.5438 66.53C88.8604 63.47 85.8571 59.9283 83.5338 55.905C81.2671 51.825 80.1338 47.1217 80.1338 41.795C80.1338 36.4683 81.2671 31.7083 83.5338 27.515C85.8571 23.265 88.9454 19.6667 92.7988 16.72C96.6521 13.7733 101.129 11.5067 106.229 9.92C111.329 8.33333 116.655 7.54 122.209 7.54C128.159 7.54 133.712 8.475 138.869 10.345C144.082 12.1583 148.615 14.7367 152.469 18.08C156.379 21.3667 159.467 25.3333 161.734 29.98C164 34.57 165.162 39.67 165.219 45.28H144.819C144.535 42.1633 143.855 39.33 142.779 36.78C141.759 34.1733 140.285 31.935 138.359 30.065C136.489 28.195 134.194 26.75 131.474 25.73C128.754 24.71 125.609 24.2 122.039 24.2C118.979 24.2 116.145 24.5967 113.539 25.39C110.932 26.1833 108.665 27.345 106.739 28.875C104.869 30.405 103.395 32.2467 102.319 34.4C101.242 36.5533 100.704 38.99 100.704 41.71C100.704 44.6 101.44 47.1217 102.914 49.275C104.387 51.3717 106.314 53.2133 108.694 54.8C111.074 56.3867 113.794 57.775 116.854 58.965C119.97 60.0983 123.2 61.1467 126.544 62.11C131.7 63.64 136.63 65.5383 141.334 67.805C146.037 70.015 150.174 72.7067 153.744 75.88C157.314 78.9967 160.147 82.6233 162.244 86.76C164.34 90.8967 165.389 95.6283 165.389 100.955C165.389 106.452 164.227 111.297 161.904 115.49C159.58 119.683 156.464 123.197 152.554 126.03C148.644 128.863 144.11 131.017 138.954 132.49C133.797 133.907 128.414 134.615 122.804 134.615C119.007 134.615 115.239 134.247 111.499 133.51C107.759 132.773 104.16 131.668 100.704 130.195C97.3038 128.722 94.1304 126.908 91.1838 124.755C88.2371 122.545 85.6588 120.023 83.4488 117.19C81.2954 114.3 79.5954 111.098 78.3488 107.585C77.1021 104.015 76.4504 100.105 76.3938 95.855H96.8788C97.1621 99.595 97.9838 102.853 99.3438 105.63C100.704 108.407 102.517 110.73 104.784 112.6C107.05 114.413 109.685 115.802 112.689 116.765C115.749 117.672 119.12 118.125 122.804 118.125C125.864 118.125 128.725 117.757 131.389 117.02C134.052 116.283 136.375 115.207 138.359 113.79C140.342 112.317 141.9 110.532 143.034 108.435C144.167 106.282 144.734 103.845 144.734 101.125Z" fill="white"/>
<path d="M36.9429 116.34H99.4179V133H12.9729L12.8879 119.23L73.4079 26.07H13.3979V9.24H97.4629L97.5479 22.67L36.9429 116.34Z" fill="white"/>
<path d="M36.9429 116.34L31.9054 113.081L25.9145 122.34H36.9429V116.34ZM99.4179 116.34H105.418V110.34H99.4179V116.34ZM99.4179 133V139H105.418V133H99.4179ZM12.9729 133L6.97301 133.037L7.00982 139H12.9729V133ZM12.8879 119.23L7.85639 115.961L6.87691 117.469L6.88801 119.267L12.8879 119.23ZM73.4079 26.07L78.4394 29.3386L84.4606 20.07H73.4079V26.07ZM13.3979 26.07H7.39789V32.07H13.3979V26.07ZM13.3979 9.24V3.24H7.39789V9.24H13.3979ZM97.4629 9.24L103.463 9.20202L103.425 3.24H97.4629V9.24ZM97.5479 22.67L102.585 25.9293L103.559 24.4244L103.548 22.632L97.5479 22.67ZM36.9429 122.34H99.4179V110.34H36.9429V122.34ZM93.4179 116.34V133H105.418V116.34H93.4179ZM99.4179 127H12.9729V139H99.4179V127ZM18.9728 132.963L18.8878 119.193L6.88801 119.267L6.97301 133.037L18.9728 132.963ZM17.9194 122.499L78.4394 29.3386L68.3764 22.8014L7.85639 115.961L17.9194 122.499ZM73.4079 20.07H13.3979V32.07H73.4079V20.07ZM19.3979 26.07V9.24H7.39789V26.07H19.3979ZM13.3979 15.24H97.4629V3.24H13.3979V15.24ZM91.463 9.27797L91.548 22.708L103.548 22.632L103.463 9.20202L91.463 9.27797ZM92.5104 19.4107L31.9054 113.081L41.9804 119.599L102.585 25.9293L92.5104 19.4107Z" fill="black"/>
<path d="M36.9429 116.34H99.4179V133H12.9729L12.8879 119.23L73.4079 26.07H13.3979V9.24H97.4629L97.5479 22.67L36.9429 116.34Z" fill="white"/>
<mask id="mask0" mask-type="alpha" maskUnits="userSpaceOnUse" x="49" y="92" width="78" height="65">
<rect x="49" y="92" width="78" height="65" fill="white"/>
</mask>
<g mask="url(#mask0)">
<path d="M144.734 101.125C144.734 98.1783 144.11 95.6 142.864 93.39C141.674 91.1233 139.945 89.14 137.679 87.44C135.469 85.74 132.805 84.2667 129.689 83.02C126.629 81.7167 123.285 80.5267 119.659 79.45C114.785 78.0333 109.969 76.2767 105.209 74.18C100.505 72.0833 96.2836 69.5333 92.5436 66.53C88.8603 63.47 85.857 59.9283 83.5336 55.905C81.267 51.825 80.1336 47.1217 80.1336 41.795C80.1336 36.4683 81.267 31.7083 83.5336 27.515C85.857 23.265 88.9453 19.6667 92.7986 16.72C96.652 13.7733 101.129 11.5067 106.229 9.92C111.329 8.33333 116.655 7.54 122.209 7.54C128.159 7.54 133.712 8.475 138.869 10.345C144.082 12.1583 148.615 14.7367 152.469 18.08C156.379 21.3667 159.467 25.3333 161.734 29.98C164 34.57 165.162 39.67 165.219 45.28H144.819C144.535 42.1633 143.855 39.33 142.779 36.78C141.759 34.1733 140.285 31.935 138.359 30.065C136.489 28.195 134.194 26.75 131.474 25.73C128.754 24.71 125.609 24.2 122.039 24.2C118.979 24.2 116.145 24.5967 113.539 25.39C110.932 26.1833 108.665 27.345 106.739 28.875C104.869 30.405 103.395 32.2467 102.319 34.4C101.242 36.5533 100.704 38.99 100.704 41.71C100.704 44.6 101.44 47.1217 102.914 49.275C104.387 51.3717 106.314 53.2133 108.694 54.8C111.074 56.3867 113.794 57.775 116.854 58.965C119.97 60.0983 123.2 61.1467 126.544 62.11C131.7 63.64 136.63 65.5383 141.334 67.805C146.037 70.015 150.174 72.7067 153.744 75.88C157.314 78.9967 160.147 82.6233 162.244 86.76C164.34 90.8967 165.389 95.6283 165.389 100.955C165.389 106.452 164.227 111.297 161.904 115.49C159.58 119.683 156.464 123.197 152.554 126.03C148.644 128.863 144.11 131.017 138.954 132.49C133.797 133.907 128.414 134.615 122.804 134.615C119.007 134.615 115.239 134.247 111.499 133.51C107.759 132.773 104.16 131.668 100.704 130.195C97.3036 128.722 94.1303 126.908 91.1836 124.755C88.237 122.545 85.6586 120.023 83.4486 117.19C81.2953 114.3 79.5953 111.098 78.3486 107.585C77.102 104.015 76.4503 100.105 76.3936 95.855H96.8786C97.162 99.595 97.9836 102.853 99.3436 105.63C100.704 108.407 102.517 110.73 104.784 112.6C107.05 114.413 109.685 115.802 112.689 116.765C115.749 117.672 119.12 118.125 122.804 118.125C125.864 118.125 128.725 117.757 131.389 117.02C134.052 116.283 136.375 115.207 138.359 113.79C140.342 112.317 141.9 110.532 143.034 108.435C144.167 106.282 144.734 103.845 144.734 101.125Z" fill="white"/>
<path d="M142.864 93.39L137.551 96.179L137.593 96.2591L137.638 96.3379L142.864 93.39ZM137.679 87.44L134.02 92.1957L134.049 92.218L134.079 92.24L137.679 87.44ZM129.689 83.02L127.337 88.5401L127.399 88.5662L127.46 88.5909L129.689 83.02ZM119.659 79.45L121.366 73.6981L121.35 73.6933L121.334 73.6885L119.659 79.45ZM105.209 74.18L102.766 79.6601L102.778 79.6656L102.79 79.6709L105.209 74.18ZM92.5436 66.53L88.7095 71.1451L88.7479 71.177L88.7868 71.2083L92.5436 66.53ZM83.5336 55.905L78.2887 58.8189L78.3129 58.8624L78.3378 58.9054L83.5336 55.905ZM83.5336 27.515L78.269 24.637L78.2622 24.6494L78.2554 24.6619L83.5336 27.515ZM138.869 10.345L136.823 15.9856L136.86 15.999L136.898 16.012L138.869 10.345ZM152.469 18.08L148.537 22.6119L148.572 22.6427L148.608 22.6729L152.469 18.08ZM161.734 29.98L156.341 32.6105L156.347 32.6236L156.354 32.6367L161.734 29.98ZM165.219 45.28V51.28H171.28L171.218 45.2194L165.219 45.28ZM144.819 45.28L138.843 45.8232L139.339 51.28H144.819V45.28ZM142.779 36.78L137.191 38.9664L137.22 39.0405L137.251 39.1138L142.779 36.78ZM138.359 30.065L134.116 34.3076L134.148 34.3393L134.18 34.3705L138.359 30.065ZM113.539 25.39L115.286 31.13L113.539 25.39ZM106.739 28.875L103.007 24.1763L102.973 24.2035L102.939 24.2313L106.739 28.875ZM102.914 49.275L97.9618 52.6631L97.983 52.694L98.0045 52.7247L102.914 49.275ZM116.854 58.965L114.679 64.557L114.741 64.5811L114.803 64.6038L116.854 58.965ZM126.544 62.11L128.25 56.3578L128.228 56.3511L128.205 56.3446L126.544 62.11ZM141.334 67.805L138.729 73.2101L138.755 73.2229L138.782 73.2354L141.334 67.805ZM153.744 75.88L149.757 80.3645L149.778 80.3823L149.798 80.3999L153.744 75.88ZM138.954 132.49L140.543 138.276L140.573 138.268L140.602 138.259L138.954 132.49ZM100.704 130.195L98.318 135.7L98.3345 135.707L98.3511 135.715L100.704 130.195ZM91.1836 124.755L87.5836 129.555L87.6135 129.577L87.6435 129.599L91.1836 124.755ZM83.4486 117.19L78.6374 120.775L78.6769 120.828L78.7176 120.88L83.4486 117.19ZM78.3486 107.585L72.6841 109.563L72.6891 109.577L72.6941 109.591L78.3486 107.585ZM76.3936 95.855V89.855H70.3131L70.3942 95.935L76.3936 95.855ZM96.8786 95.855L102.862 95.4018L102.441 89.855H96.8786V95.855ZM104.784 112.6L100.965 117.228L101 117.257L101.035 117.285L104.784 112.6ZM112.689 116.765L110.856 122.478L110.92 122.499L110.984 122.518L112.689 116.765ZM131.389 117.02L129.789 111.237L131.389 117.02ZM138.359 113.79L141.846 118.672L141.892 118.64L141.937 118.606L138.359 113.79ZM143.034 108.435L148.312 111.288L148.328 111.259L148.343 111.229L143.034 108.435ZM150.734 101.125C150.734 97.3136 149.92 93.6876 148.09 90.4421L137.638 96.3379C138.3 97.5124 138.734 99.0431 138.734 101.125H150.734ZM148.176 90.601C146.529 87.4642 144.181 84.8171 141.279 82.64L134.079 92.24C135.709 93.4629 136.818 94.7825 137.551 96.179L148.176 90.601ZM141.337 82.6843C138.612 80.588 135.445 78.8603 131.917 77.4491L127.46 88.5909C130.166 89.673 132.326 90.892 134.02 92.1957L141.337 82.6843ZM132.04 77.4999C128.744 76.0959 125.183 74.8311 121.366 73.6981L117.951 85.2019C121.388 86.2222 124.514 87.3374 127.337 88.5401L132.04 77.4999ZM121.334 73.6885C116.72 72.3474 112.152 70.6819 107.627 68.6891L102.79 79.6709C107.786 81.8714 112.851 83.7193 117.984 85.2115L121.334 73.6885ZM107.652 68.6999C103.384 66.7976 99.6104 64.5097 96.3005 61.8517L88.7868 71.2083C92.9569 74.557 97.6262 77.369 102.766 79.6601L107.652 68.6999ZM96.3778 61.9149C93.2232 59.2942 90.6871 56.2945 88.7295 52.9046L78.3378 58.9054C81.0269 63.5622 84.4974 67.6458 88.7095 71.1451L96.3778 61.9149ZM88.7786 52.9911C87.0735 49.9219 86.1336 46.2479 86.1336 41.795H74.1336C74.1336 47.9954 75.4605 53.7281 78.2887 58.8189L88.7786 52.9911ZM86.1336 41.795C86.1336 37.3455 87.0725 33.586 88.8119 30.3681L78.2554 24.6619C75.4615 29.8306 74.1336 35.5911 74.1336 41.795H86.1336ZM88.7983 30.393C90.7189 26.8798 93.255 23.9243 96.4433 21.4861L89.1539 11.9539C84.6357 15.409 80.9951 19.6502 78.269 24.637L88.7983 30.393ZM96.4433 21.4861C99.6835 19.0084 103.516 17.0477 108.011 15.6491L104.446 4.19086C98.7416 5.96564 93.6205 8.53827 89.1539 11.9539L96.4433 21.4861ZM108.011 15.6491C112.511 14.2491 117.236 13.54 122.209 13.54V1.54C116.075 1.54 110.146 2.4176 104.446 4.19086L108.011 15.6491ZM122.209 13.54C127.52 13.54 132.376 14.3727 136.823 15.9856L140.914 4.70443C135.048 2.57726 128.797 1.54 122.209 1.54V13.54ZM136.898 16.012C141.45 17.5956 145.304 19.8077 148.537 22.6119L156.401 13.5481C151.926 9.66566 146.714 6.72107 140.84 4.67802L136.898 16.012ZM148.608 22.6729C151.868 25.413 154.438 28.7084 156.341 32.6105L167.126 27.3495C164.496 21.9582 160.89 17.3203 156.329 13.4871L148.608 22.6729ZM156.354 32.6367C158.185 36.3438 159.171 40.5439 159.219 45.3406L171.218 45.2194C171.153 38.7961 169.816 32.7962 167.113 27.3233L156.354 32.6367ZM165.219 39.28H144.819V51.28H165.219V39.28ZM150.794 44.7368C150.462 41.083 149.653 37.6354 148.306 34.4462L137.251 39.1138C138.058 41.0246 138.609 43.2436 138.843 45.8232L150.794 44.7368ZM148.366 34.5936C147.047 31.2228 145.106 28.2525 142.538 25.7595L134.18 34.3705C135.465 35.6175 136.47 37.1239 137.191 38.9664L148.366 34.5936ZM142.601 25.8224C140.068 23.2893 137.023 21.4029 133.58 20.112L129.367 31.348C131.365 32.0971 132.909 33.1007 134.116 34.3076L142.601 25.8224ZM133.58 20.112C130.052 18.789 126.169 18.2 122.039 18.2V30.2C125.048 30.2 127.455 30.631 129.367 31.348L133.58 20.112ZM122.039 18.2C118.458 18.2 115.029 18.6645 111.792 19.65L115.286 31.13C117.261 30.5288 119.499 30.2 122.039 30.2V18.2ZM111.792 19.65C108.541 20.6391 105.584 22.1298 103.007 24.1763L110.47 33.5737C111.746 32.5602 113.322 31.7275 115.286 31.13L111.792 19.65ZM102.939 24.2313C100.417 26.295 98.4085 28.8039 96.9521 31.7167L107.685 37.0833C108.382 35.6894 109.32 34.515 110.538 33.5187L102.939 24.2313ZM96.9521 31.7167C95.4076 34.8057 94.7036 38.1804 94.7036 41.71H106.704C106.704 39.7996 107.076 38.3009 107.685 37.0833L96.9521 31.7167ZM94.7036 41.71C94.7036 45.6735 95.7329 49.4054 97.9618 52.6631L107.865 45.8869C107.148 44.8379 106.704 43.5265 106.704 41.71H94.7036ZM98.0045 52.7247C99.9516 55.4956 102.439 57.8414 105.365 59.7923L112.022 49.8077C110.188 48.5853 108.822 47.2478 107.823 45.8253L98.0045 52.7247ZM105.365 59.7923C108.156 61.6524 111.272 63.2321 114.679 64.557L119.028 53.373C116.315 52.3179 113.992 51.1209 112.022 49.8077L105.365 59.7923ZM114.803 64.6038C118.054 65.7859 121.414 66.8762 124.882 67.8754L128.205 56.3446C124.986 55.4172 121.886 54.4107 118.904 53.3262L114.803 64.6038ZM124.837 67.8621C129.695 69.3035 134.324 71.0871 138.729 73.2101L143.938 62.3999C138.937 59.9896 133.706 57.9765 128.25 56.3578L124.837 67.8621ZM138.782 73.2354C143.01 75.2219 146.654 77.6057 149.757 80.3645L157.73 71.3955C153.693 67.8077 149.064 64.8081 143.885 62.3746L138.782 73.2354ZM149.798 80.3999C152.8 83.0213 155.151 86.0382 156.892 89.4726L167.595 84.0474C165.143 79.2085 161.827 74.9721 157.69 71.3601L149.798 80.3999ZM156.892 89.4726C158.503 92.6515 159.389 96.4303 159.389 100.955H171.389C171.389 94.8264 170.178 89.1418 167.595 84.0474L156.892 89.4726ZM159.389 100.955C159.389 105.585 158.417 109.402 156.655 112.582L167.152 118.398C170.037 113.191 171.389 107.318 171.389 100.955H159.389ZM156.655 112.582C154.761 116.001 152.237 118.85 149.033 121.172L156.074 130.888C160.691 127.543 164.399 123.366 167.152 118.398L156.655 112.582ZM149.033 121.172C145.748 123.552 141.864 125.418 137.305 126.721L140.602 138.259C146.357 136.615 151.539 134.175 156.074 130.888L149.033 121.172ZM137.364 126.704C132.75 127.972 127.903 128.615 122.804 128.615V140.615C128.924 140.615 134.844 139.841 140.543 138.276L137.364 126.704ZM122.804 128.615C119.398 128.615 116.018 128.285 112.658 127.623L110.339 139.397C114.459 140.208 118.616 140.615 122.804 140.615V128.615ZM112.658 127.623C109.322 126.966 106.124 125.983 103.056 124.675L98.3511 135.715C102.197 137.354 106.196 138.581 110.339 139.397L112.658 127.623ZM103.089 124.69C100.091 123.39 97.3058 121.798 94.7237 119.911L87.6435 129.599C90.9548 132.019 94.5162 134.053 98.318 135.7L103.089 124.69ZM94.7836 119.955C92.2507 118.055 90.0552 115.904 88.1797 113.5L78.7176 120.88C81.262 124.142 84.2233 127.035 87.5836 129.555L94.7836 119.955ZM88.2599 113.605C86.4772 111.213 85.0562 108.546 84.0032 105.579L72.6941 109.591C74.1344 113.651 76.1134 117.387 78.6374 120.775L88.2599 113.605ZM84.0132 105.607C83.0044 102.718 82.4422 99.4576 82.3931 95.775L70.3942 95.935C70.4584 100.752 71.1996 105.312 72.6841 109.563L84.0132 105.607ZM76.3936 101.855H96.8786V89.855H76.3936V101.855ZM90.8958 96.3082C91.2247 100.65 92.197 104.679 93.9553 108.269L104.732 102.991C103.77 101.027 103.099 98.5395 102.862 95.4018L90.8958 96.3082ZM93.9553 108.269C95.671 111.772 98.0054 114.786 100.965 117.228L108.602 107.972C107.029 106.674 105.736 105.041 104.732 102.991L93.9553 108.269ZM101.035 117.285C103.92 119.593 107.217 121.311 110.856 122.478L114.521 111.052C112.153 110.292 110.18 109.234 108.532 107.915L101.035 117.285ZM110.984 122.518C114.675 123.611 118.63 124.125 122.804 124.125V112.125C119.611 112.125 116.822 111.732 114.393 111.012L110.984 122.518ZM122.804 124.125C126.347 124.125 129.751 123.698 132.988 122.803L129.789 111.237C127.699 111.815 125.38 112.125 122.804 112.125V124.125ZM132.988 122.803C136.239 121.904 139.22 120.548 141.846 118.672L134.871 108.908C133.531 109.865 131.865 110.663 129.789 111.237L132.988 122.803ZM141.937 118.606C144.597 116.63 146.747 114.184 148.312 111.288L137.755 105.582C137.054 106.879 136.087 108.003 134.781 108.974L141.937 118.606ZM148.343 111.229C149.981 108.117 150.734 104.702 150.734 101.125H138.734C138.734 102.988 138.353 104.446 137.724 105.641L148.343 111.229Z" fill="black"/>
<path d="M144.734 101.125C144.734 98.1783 144.11 95.6 142.864 93.39C141.674 91.1233 139.945 89.14 137.679 87.44C135.469 85.74 132.805 84.2667 129.689 83.02C126.629 81.7167 123.285 80.5267 119.659 79.45C114.785 78.0333 109.969 76.2767 105.209 74.18C100.505 72.0833 96.2836 69.5333 92.5436 66.53C88.8603 63.47 85.857 59.9283 83.5336 55.905C81.267 51.825 80.1336 47.1217 80.1336 41.795C80.1336 36.4683 81.267 31.7083 83.5336 27.515C85.857 23.265 88.9453 19.6667 92.7986 16.72C96.652 13.7733 101.129 11.5067 106.229 9.92C111.329 8.33333 116.655 7.54 122.209 7.54C128.159 7.54 133.712 8.475 138.869 10.345C144.082 12.1583 148.615 14.7367 152.469 18.08C156.379 21.3667 159.467 25.3333 161.734 29.98C164 34.57 165.162 39.67 165.219 45.28H144.819C144.535 42.1633 143.855 39.33 142.779 36.78C141.759 34.1733 140.285 31.935 138.359 30.065C136.489 28.195 134.194 26.75 131.474 25.73C128.754 24.71 125.609 24.2 122.039 24.2C118.979 24.2 116.145 24.5967 113.539 25.39C110.932 26.1833 108.665 27.345 106.739 28.875C104.869 30.405 103.395 32.2467 102.319 34.4C101.242 36.5533 100.704 38.99 100.704 41.71C100.704 44.6 101.44 47.1217 102.914 49.275C104.387 51.3717 106.314 53.2133 108.694 54.8C111.074 56.3867 113.794 57.775 116.854 58.965C119.97 60.0983 123.2 61.1467 126.544 62.11C131.7 63.64 136.63 65.5383 141.334 67.805C146.037 70.015 150.174 72.7067 153.744 75.88C157.314 78.9967 160.147 82.6233 162.244 86.76C164.34 90.8967 165.389 95.6283 165.389 100.955C165.389 106.452 164.227 111.297 161.904 115.49C159.58 119.683 156.464 123.197 152.554 126.03C148.644 128.863 144.11 131.017 138.954 132.49C133.797 133.907 128.414 134.615 122.804 134.615C119.007 134.615 115.239 134.247 111.499 133.51C107.759 132.773 104.16 131.668 100.704 130.195C97.3036 128.722 94.1303 126.908 91.1836 124.755C88.237 122.545 85.6586 120.023 83.4486 117.19C81.2953 114.3 79.5953 111.098 78.3486 107.585C77.102 104.015 76.4503 100.105 76.3936 95.855H96.8786C97.162 99.595 97.9836 102.853 99.3436 105.63C100.704 108.407 102.517 110.73 104.784 112.6C107.05 114.413 109.685 115.802 112.689 116.765C115.749 117.672 119.12 118.125 122.804 118.125C125.864 118.125 128.725 117.757 131.389 117.02C134.052 116.283 136.375 115.207 138.359 113.79C140.342 112.317 141.9 110.532 143.034 108.435C144.167 106.282 144.734 103.845 144.734 101.125Z" fill="white"/>
</g>
</g>
<defs>
<clipPath id="clip0">
<rect width="175" height="157" fill="white"/>
</clipPath>
</defs>
</svg>
