<svg width="263" height="250" viewBox="0 0 263 250" fill="none" xmlns="http://www.w3.org/2000/svg">
<circle cx="138" cy="125" r="121.5" fill="black" stroke="black" stroke-width="7"/>
<path d="M151.476 167.53V183H60.8658V168.21L128.696 86.27H62.3958V70.8H149.436V85.59L81.6058 167.53H151.476ZM169.472 69.1C179.785 69.1 188.569 70.97 195.822 74.71C203.189 78.45 209.365 84.1733 214.352 91.88L200.582 104.29C197.409 97.49 193.442 92.56 188.682 89.5C183.922 86.44 177.575 84.91 169.642 84.91C161.822 84.91 155.759 86.4967 151.452 89.67C147.145 92.73 144.992 96.6967 144.992 101.57C144.992 106.103 147.089 109.73 151.282 112.45C155.475 115.057 162.955 117.323 173.722 119.25C183.809 121.063 191.799 123.387 197.692 126.22C203.699 128.94 208.062 132.397 210.782 136.59C213.502 140.67 214.862 145.77 214.862 151.89C214.862 158.463 212.992 164.243 209.252 169.23C205.512 174.217 200.242 178.07 193.442 180.79C186.755 183.397 178.992 184.7 170.152 184.7C147.372 184.7 131.279 177.107 121.872 161.92L134.622 149.17C138.249 155.97 142.895 160.957 148.562 164.13C154.342 167.303 161.482 168.89 169.982 168.89C178.029 168.89 184.319 167.53 188.852 164.81C193.499 161.977 195.822 158.01 195.822 152.91C195.822 148.83 193.725 145.543 189.532 143.05C185.452 140.557 178.255 138.347 167.942 136.42C157.629 134.493 149.412 132.113 143.292 129.28C137.172 126.447 132.695 122.933 129.862 118.74C127.142 114.547 125.782 109.447 125.782 103.44C125.782 97.0933 127.539 91.3133 131.052 86.1C134.565 80.8867 139.609 76.75 146.182 73.69C152.869 70.63 160.632 69.1 169.472 69.1Z" fill="white"/>
<path d="M172.374 69.1C182.687 69.1 191.471 70.97 198.724 74.71C206.091 78.45 212.267 84.1733 217.254 91.88L203.484 104.29C200.311 97.49 196.344 92.56 191.584 89.5C186.824 86.44 180.477 84.91 172.544 84.91C164.724 84.91 158.661 86.4967 154.354 89.67C150.047 92.73 147.894 96.6967 147.894 101.57C147.894 106.103 149.991 109.73 154.184 112.45C158.377 115.057 165.857 117.323 176.624 119.25C186.711 121.063 194.701 123.387 200.594 126.22C206.601 128.94 210.964 132.397 213.684 136.59C216.404 140.67 217.764 145.77 217.764 151.89C217.764 158.463 215.894 164.243 212.154 169.23C208.414 174.217 203.144 178.07 196.344 180.79C189.657 183.397 181.894 184.7 173.054 184.7C150.274 184.7 134.181 177.107 124.774 161.92L137.524 149.17C141.151 155.97 145.797 160.957 151.464 164.13C157.244 167.303 164.384 168.89 172.884 168.89C180.931 168.89 187.221 167.53 191.754 164.81C196.401 161.977 198.724 158.01 198.724 152.91C198.724 148.83 196.627 145.543 192.434 143.05C188.354 140.557 181.157 138.347 170.844 136.42C160.531 134.493 152.314 132.113 146.194 129.28C140.074 126.447 135.597 122.933 132.764 118.74C130.044 114.547 128.684 109.447 128.684 103.44C128.684 97.0933 130.441 91.3133 133.954 86.1C137.467 80.8867 142.511 76.75 149.084 73.69C155.771 70.63 163.534 69.1 172.374 69.1Z" fill="white"/>
<path d="M198.724 74.71L195.974 80.0428L195.991 80.0515L196.008 80.06L198.724 74.71ZM217.254 91.88L221.271 96.337L225.069 92.9137L222.291 88.6205L217.254 91.88ZM203.484 104.29L198.047 106.827L201.476 114.176L207.501 108.747L203.484 104.29ZM154.354 89.67L157.829 94.5611L157.871 94.5311L157.913 94.5003L154.354 89.67ZM154.184 112.45L150.919 117.484L150.967 117.515L151.016 117.546L154.184 112.45ZM176.624 119.25L177.686 113.345L177.681 113.344L176.624 119.25ZM200.594 126.22L197.994 131.628L198.056 131.657L198.119 131.686L200.594 126.22ZM213.684 136.59L208.65 139.855L208.671 139.887L208.692 139.918L213.684 136.59ZM196.344 180.79L198.523 186.38L198.548 186.371L198.572 186.361L196.344 180.79ZM124.774 161.92L120.531 157.677L117.17 161.038L119.673 165.079L124.774 161.92ZM137.524 149.17L142.818 146.346L139.007 139.201L133.281 144.927L137.524 149.17ZM151.464 164.13L148.532 169.365L148.554 169.377L148.576 169.389L151.464 164.13ZM191.754 164.81L194.841 169.955L194.859 169.944L194.878 169.933L191.754 164.81ZM192.434 143.05L189.305 148.17L189.336 148.189L189.367 148.207L192.434 143.05ZM170.844 136.42L171.946 130.522L171.946 130.522L170.844 136.42ZM146.194 129.28L148.715 123.835L148.715 123.835L146.194 129.28ZM132.764 118.74L127.73 122.005L127.761 122.052L127.792 122.099L132.764 118.74ZM149.084 73.69L146.587 68.2342L146.569 68.2423L146.552 68.2505L149.084 73.69ZM172.374 75.1C181.977 75.1 189.766 76.8416 195.974 80.0428L201.474 69.3772C193.175 65.0983 183.398 63.1 172.374 63.1V75.1ZM196.008 80.06C202.328 83.2685 207.74 88.2211 212.216 95.1395L222.291 88.6205C216.795 80.1255 209.853 73.6314 201.44 69.36L196.008 80.06ZM213.237 87.423L199.467 99.833L207.501 108.747L221.271 96.337L213.237 87.423ZM208.921 101.753C205.421 94.2528 200.805 88.2953 194.828 84.4529L188.339 94.5471C191.882 96.8247 195.2 100.727 198.047 106.827L208.921 101.753ZM194.828 84.4529C188.785 80.5679 181.184 78.91 172.544 78.91V90.91C179.77 90.91 184.863 92.312 188.339 94.5471L194.828 84.4529ZM172.544 78.91C164.01 78.91 156.511 80.628 150.795 84.8397L157.913 94.5003C160.811 92.3654 165.438 90.91 172.544 90.91V78.91ZM150.879 84.7789C145.144 88.8535 141.894 94.57 141.894 101.57H153.894C153.894 98.8233 154.95 96.6064 157.829 94.5611L150.879 84.7789ZM141.894 101.57C141.894 108.372 145.227 113.792 150.919 117.484L157.449 107.416C154.754 105.668 153.894 103.835 153.894 101.57H141.894ZM151.016 117.546C156.261 120.806 164.741 123.219 175.567 125.156L177.681 113.344C166.973 111.428 160.493 109.307 157.351 107.354L151.016 117.546ZM175.562 125.155C185.381 126.921 192.783 129.122 197.994 131.628L203.194 120.812C196.618 117.651 188.04 115.206 177.686 113.345L175.562 125.155ZM198.119 131.686C203.407 134.08 206.725 136.888 208.65 139.855L218.718 133.325C215.203 127.906 209.794 123.8 203.069 120.754L198.119 131.686ZM208.692 139.918C210.608 142.793 211.764 146.66 211.764 151.89H223.764C223.764 144.88 222.2 138.547 218.676 133.262L208.692 139.918ZM211.764 151.89C211.764 157.241 210.271 161.741 207.354 165.63L216.954 172.83C221.517 166.746 223.764 159.686 223.764 151.89H211.764ZM207.354 165.63C204.382 169.592 200.075 172.835 194.116 175.219L198.572 186.361C206.213 183.305 212.446 178.841 216.954 172.83L207.354 165.63ZM194.165 175.2C188.313 177.481 181.315 178.7 173.054 178.7V190.7C182.472 190.7 191.001 189.312 198.523 186.38L194.165 175.2ZM173.054 178.7C151.699 178.7 137.883 171.69 129.875 158.761L119.673 165.079C130.478 182.524 148.849 190.7 173.054 190.7V178.7ZM129.017 166.163L141.767 153.413L133.281 144.927L120.531 157.677L129.017 166.163ZM132.23 151.994C136.295 159.615 141.689 165.533 148.532 169.365L154.395 158.895C149.905 156.38 146.006 152.325 142.818 146.346L132.23 151.994ZM148.576 169.389C155.461 173.169 163.659 174.89 172.884 174.89V162.89C165.109 162.89 159.027 161.437 154.351 158.871L148.576 169.389ZM172.884 174.89C181.494 174.89 189.01 173.454 194.841 169.955L188.667 159.665C185.431 161.606 180.367 162.89 172.884 162.89V174.89ZM194.878 169.933C201.165 166.099 204.724 160.267 204.724 152.91H192.724C192.724 155.753 191.636 157.855 188.63 159.687L194.878 169.933ZM204.724 152.91C204.724 146.269 201.094 141.219 195.5 137.893L189.367 148.207C192.16 149.868 192.724 151.391 192.724 152.91H204.724ZM195.563 137.93C190.473 134.82 182.325 132.461 171.946 130.522L169.742 142.318C179.989 144.232 186.235 146.294 189.305 148.17L195.563 137.93ZM171.946 130.522C161.883 128.642 154.205 126.377 148.715 123.835L143.673 134.725C150.423 137.85 159.178 140.344 169.742 142.318L171.946 130.522ZM148.715 123.835C143.266 121.313 139.786 118.415 137.735 115.381L127.792 122.099C131.409 127.451 136.882 131.581 143.673 134.725L148.715 123.835ZM137.798 115.475C135.826 112.435 134.684 108.524 134.684 103.44H122.684C122.684 110.369 124.262 116.659 127.73 122.005L137.798 115.475ZM134.684 103.44C134.684 98.2759 136.091 93.6656 138.929 89.4531L128.978 82.7469C124.79 88.961 122.684 95.9107 122.684 103.44H134.684ZM138.929 89.4531C141.745 85.2758 145.877 81.8009 151.616 79.1295L146.552 68.2505C139.144 71.6991 133.19 76.4975 128.978 82.7469L138.929 89.4531ZM151.581 79.1458C157.342 76.5094 164.224 75.1 172.374 75.1V63.1C162.843 63.1 154.199 64.7506 146.587 68.2342L151.581 79.1458Z" fill="black"/>
<mask id="mask0" mask-type="alpha" maskUnits="userSpaceOnUse" x="0" y="43" width="179" height="96">
<rect y="43" width="179" height="96" fill="#C4C4C4"/>
</mask>
<g mask="url(#mask0)">
<path d="M152.987 165.53V181H62.377V166.21L130.207 84.27H63.907V68.8H150.947V83.59L83.117 165.53H152.987Z" fill="white"/>
<path d="M152.987 165.53H158.987V159.53H152.987V165.53ZM152.987 181V187H158.987V181H152.987ZM62.377 181H56.377V187H62.377V181ZM62.377 166.21L57.7551 162.384L56.377 164.049V166.21H62.377ZM130.207 84.27L134.829 88.096L142.963 78.27H130.207V84.27ZM63.907 84.27H57.907V90.27H63.907V84.27ZM63.907 68.8V62.8H57.907V68.8H63.907ZM150.947 68.8H156.947V62.8H150.947V68.8ZM150.947 83.59L155.569 87.416L156.947 85.7512V83.59H150.947ZM83.117 165.53L78.4951 161.704L70.3611 171.53H83.117V165.53ZM146.987 165.53V181H158.987V165.53H146.987ZM152.987 175H62.377V187H152.987V175ZM68.377 181V166.21H56.377V181H68.377ZM66.9988 170.036L134.829 88.096L125.585 80.444L57.7551 162.384L66.9988 170.036ZM130.207 78.27H63.907V90.27H130.207V78.27ZM69.907 84.27V68.8H57.907V84.27H69.907ZM63.907 74.8H150.947V62.8H63.907V74.8ZM144.947 68.8V83.59H156.947V68.8H144.947ZM146.325 79.764L78.4951 161.704L87.7388 169.356L155.569 87.416L146.325 79.764ZM83.117 171.53H152.987V159.53H83.117V171.53Z" fill="black"/>
</g>
</svg>
